<?xml version="1.0" encoding="UTF-8"?><svg id="_レイヤー_2" xmlns="http://www.w3.org/2000/svg" viewBox="0 0 642.08 355.79"><defs><style>.cls-1{fill:#333132;}</style></defs><g id="_レイヤー_1-2"><path class="cls-1" d="m32.08,286.75c-10.78,28.13-5.86,39.42,7.26,40.61,30.7,2.94,106.17-48.66,133.36-71.67,6.33-4.77,15.47-2.76,18.98,3.03,3.05,4.89,0,13.36-6.09,18.58-15,13.03-50.86,38.43-86.72,56.81-29.77,15.26-59.77,25.62-78.75,20.25-14.77-4.1-22.97-17.68-19.22-45.9,1.41-9.73,3.98-20.97,8.2-34.23,2.11-6.28,9.61-8.34,15.24-5.08l1.64,1.03c2.81,1.39,5.62,3.96,6.56,7.16s.7,6.5-.47,9.42Zm15.47-48.46l-2.11,5.11c-3.05,7.3-11.02,10.1-17.81,6.48l-1.88-1.01c-6.8-3.62-9.61-12.75-6.56-19.82l2.11-5.11c3.28-7.08,11.25-10.12,17.81-6.48l2.11,1.22c6.56,3.64,9.61,12.52,6.33,19.6Z"/><path class="cls-1" d="m192.15,276.73c.47,2.3.47,4.65,1.17,6.69,22.5,90.14,148.83,4.79,196.41-42.26,4.69-4.63,11.48-3.82,15.7,1.44l1.17,1.54c3.98,5.28,1.88,11.09-2.58,15.69-57.42,56.35-205.55,149.47-233.91,28.43-7.27-30.54,0-64.45,8.91-93.12,7.27-23.6,17.11-46.5,28.13-68.09,16.17-31.65,35.39-62.86,59.06-87.67,15.23-16.1,34.45-31.61,54.84-37.38,16.88-4.52,35.39-2.16,46.88,14.65,11.72,17.02,10.31,40.58,5.16,59.55-9.14,34.55-32.35,67.75-54.38,93.12-36.56,42.34-81.09,77.41-126.57,107.4Zm.47-32.38c38.91-26.61,77.11-57.61,108.75-94.12,19.22-22.07,41.02-52.34,48.99-82.8,2.58-9.6,5.16-25.76-.94-34.61-4.92-7.3-15-6.42-21.8-4.42-16.41,4.48-32.81,18.34-45,31.12-21.8,23.24-39.85,52.24-54.85,81.67-14.77,29.65-30.7,67.37-35.16,103.15Z"/><path class="cls-1" d="m453.02,252.27c3.52-5,8.67-13.41,7.97-19.92,0-1.64-.7-2.75-1.64-3.84-1.41-1.75-3.52-2.5-5.39-2.81-9.61-1.97-20.86,4.4-28.83,10.96-6.33,5.24-11.95,11.83-16.64,18.8-4.22,6.7-7.97,14.53-9.38,22.38-1.17,5.96-.94,11.57,1.88,16.24,1.17,2.24,2.81,3.97,4.69,5.45,28.59,23.05,110.39-17.63,167.82-50.31,28.83-16.35,51.8-34.06,57.89-34.13,2.81-.25,5.39.93,7.5,3.33l1.17,1.54c3.75,4.83,2.11,13.64-3.28,17.63-45.94,34.25-200.86,120.93-245.86,84.79-3.98-3.17-7.27-7.1-9.84-11.56-6.09-10.25-7.5-22.78-5.16-35.88,2.11-12.14,7.5-24.09,14.06-34.28,6.33-9.69,14.06-18.34,22.5-25.41,13.83-11.76,31.41-19.86,47.58-16.58,6.33,1.32,11.95,4.11,16.41,8.88,4.69,4.98,7.5,11.77,8.2,19.2,1.41,14.88-5.39,29.77-14.06,41.78-3.98,5.5-11.02,6.59-15.47,2.52l-1.41-1.28c-4.45-4.06-4.69-12.01-.7-17.52Z"/></g></svg>