<?xml version="1.0" encoding="UTF-8"?><svg id="_レイヤー_2" xmlns="http://www.w3.org/2000/svg" viewBox="0 0 642.58 355.79"><defs><style>.cls-1{fill:#333132;}</style></defs><g id="_レイヤー_1-2"><path class="cls-1" d="m41.57,248.44l7.74-16.68c3.28-7.08-20.56-19.81-23.85-12.73l-7.44,21.21c-3.05,7.06,20.5,15.5,23.55,8.2Z"/><path class="cls-1" d="m631.38,215.1c-6.09.06-29.06,17.78-57.89,34.13-57.42,32.68-139.22,73.35-167.82,50.31-1.88-1.48-3.52-3.21-4.69-5.45-2.81-4.68-3.05-10.28-1.87-16.24,1.41-7.86,5.16-15.69,9.38-22.38,4.69-6.97,10.31-13.56,16.64-18.8,7.97-6.56,19.22-12.93,28.83-10.96,1.88.3,3.98,1.06,5.39,2.81.94,1.09,1.64,2.2,1.64,3.84.7,6.5-6.64,18.01-10.16,23.01-3.99,5.5,13.67,21.17,17.66,15.67,8.67-12.01,17.58-29.38,16.17-44.26-.7-7.44-3.52-14.22-8.2-19.2-4.45-4.77-10.08-7.56-16.41-8.88-16.17-3.27-33.75,4.83-47.58,16.58-8.44,7.07-16.17,15.71-22.5,25.41-.15.23-.29.46-.43.69-47.73,47.09-173.74,132.08-196.21,42.06-.7-2.05-.7-4.39-1.17-6.69,45.47-29.99,90-65.06,126.57-107.4,22.03-25.37,45.23-58.57,54.38-93.12,5.16-18.97,6.56-42.53-5.16-59.55-11.48-16.81-30-19.17-46.88-14.65-20.39,5.77-39.61,21.28-54.84,37.38-23.67,24.81-42.89,56.02-59.06,87.67-11.01,21.59-20.86,44.48-28.12,68.09-6.25,20.11-11.68,42.8-11.86,65.1-30.76,24.59-99.01,69.88-127.82,67.12-13.13-1.2-17.84-12.09-6.07-52.44,1.29-4.43-22.44-11.46-24.01-7.05-4.66,13.11-6.96,30.85-8.37,40.59-3.75,28.22,4.45,41.8,19.22,45.9,18.98,5.37,48.98-4.99,78.75-20.25,26.72-13.69,53.43-31.28,71.52-44.74,24.89,102.44,136.99,48.67,204.46-4.15-.21,9.32,1.72,18.08,6.2,25.62,2.58,4.46,5.86,8.39,9.84,11.56,45,36.14,204.23-52.88,250.16-87.13,5.39-3.99-5.01-20.52-9.69-20.16Zm-403.6-73.91c15-29.44,33.05-58.44,54.84-81.67,12.19-12.79,28.59-26.64,45-31.12,6.8-2,16.88-2.88,21.8,4.42,6.09,8.84,3.52,25,.94,34.61-7.97,30.46-29.77,60.73-48.99,82.8-31.64,36.52-69.84,67.52-108.75,94.12,4.45-35.78,20.39-73.5,35.16-103.15Z"/></g></svg>