<?xml version="1.0" encoding="UTF-8"?><svg id="_レイヤー_2" xmlns="http://www.w3.org/2000/svg" viewBox="0 0 805.69 212.42"><defs><style>.cls-1{fill:#333132;}</style></defs><g id="_レイヤー_1-2"><path class="cls-1" d="m109.67,135.63c-.46,0-.9-.18-1.24-.49-.36-.34-.56-.81-.56-1.31V34.48c0-.96.75-1.75,1.71-1.8,0,0,61.5-3.22,61.53-3.22.46,0,.9.18,1.24.49.36.34.56.81.56,1.31v99.35c0,.96-.75,1.75-1.71,1.8,0,0-2.82.15-2.85.15-.46,0-.9-.18-1.24-.49-.36-.34-.56-.81-.56-1.31v-2.55c0-.25-.1-.48-.28-.65-.17-.16-.39-.25-.62-.25l-50.57,2.65c-.48.03-.85.42-.85.9v2.84c0,.96-.75,1.75-1.71,1.8,0,0-2.82.15-2.85.15Zm5.41-97c-.48.03-.85.42-.85.9v83.28c0,.25.1.48.28.65.17.16.39.25.62.25l50.57-2.65c.48-.03.85-.42.85-.9V36.88c0-.25-.1-.48-.28-.65-.17-.16-.39-.25-.62-.25l-50.57,2.65Zm5.99,73c-.46,0-.9-.18-1.24-.49-.36-.34-.56-.81-.56-1.31v-2.51c0-.96.75-1.75,1.71-1.8l15.44-.81c.48-.03.85-.42.85-.9v-22.44c0-.25-.1-.48-.28-.65-.17-.16-.39-.25-.62-.25,0,0-9.99.52-10.02.52-.46,0-.9-.18-1.24-.49-.36-.34-.56-.81-.56-1.31v-2.51c0-.96.75-1.75,1.71-1.8l10.16-.53c.48-.03.85-.42.85-.9v-18.24c0-.25-.1-.48-.28-.65-.17-.16-.39-.25-.62-.25,0,0-12.27.64-12.3.64-.46,0-.9-.18-1.24-.49-.36-.34-.56-.81-.56-1.31v-2.51c0-.96.75-1.75,1.71-1.8,0,0,32.58-1.71,32.61-1.71.46,0,.9.18,1.24.49.36.34.56.81.56,1.31v2.51c0,.96-.75,1.75-1.71,1.8l-12.44.65c-.48.03-.85.42-.85.9v18.24c0,.25.1.48.28.65.17.16.39.25.62.25,0,0,9.99-.52,10.02-.52.46,0,.9.18,1.24.49.36.34.56.81.56,1.31v2.51c0,.96-.75,1.75-1.71,1.8l-10.16.53c-.48.03-.85.42-.85.9v22.44c0,.25.1.48.28.65.17.16.39.25.62.25,0,0,15.27-.8,15.3-.8.46,0,.9.18,1.24.49.36.34.56.81.56,1.31v2.51c0,.96-.75,1.75-1.71,1.8,0,0-38.58,2.02-38.61,2.02Zm35.39-14.2c-.67,0-1.32-.38-1.63-1.03-1.02-2.15-2.21-4.2-3.53-6.09-.53-.76-.4-1.8.31-2.41l1.77-1.5c.33-.28.74-.43,1.17-.43.07,0,.15,0,.22.01.5.06.95.33,1.24.74,1.62,2.26,3,4.6,4.22,7.13.21.44.24.94.07,1.39-.16.46-.5.82-.94,1.03l-2.15.99c-.24.11-.5.16-.75.16Z"/><path class="cls-1" d="m240.62,129.12c-.46,0-.9-.18-1.24-.49-.36-.34-.56-.81-.56-1.31V37.05c0-.25-.1-.48-.28-.65-.11-.11-.25-.18-.4-.22-.8-.2-1.36-.92-1.36-1.75v-2.63c0-.96.75-1.75,1.71-1.8,0,0,17.11-.9,17.14-.9.51,0,.99.21,1.33.59l2.22,2.44c.37.41.53.96.45,1.5l-3.51,21.47c-.02.14-.01.29.03.42,2.12,6.49,3.2,12.51,3.32,18.41,0,.16.04.31.13.44.34.57.34,1.27,0,1.84-.08.13-.12.28-.13.44-.23,10.84-3.17,16.25-8.99,16.56-.12,0-.23,0-.35,0-.67,0-1.37-.1-2.07-.3-.57-.16-1.03-.59-1.22-1.16-.19-.56-.09-1.19.27-1.66l1.74-2.31c.34-.45.88-.72,1.44-.72.06,0,.19,0,.19,0,.25,0,.42-.05.57-.16,1.66-1.14,2.43-4.69,2.43-11.17s-1.15-12.72-3.52-19.02c-.11-.29-.14-.61-.09-.92l3.12-19.37c.04-.27-.04-.54-.22-.74-.17-.19-.41-.3-.67-.3l-6.29.33c-.48.03-.85.42-.85.9v53.64c0,.16.04.32.13.46.34.57.34,1.28,0,1.84-.08.14-.13.3-.13.46v34.16c0,.96-.75,1.75-1.71,1.8,0,0-2.58.13-2.61.13Zm40.08-1.86c-.46,0-.9-.18-1.24-.49-.36-.34-.56-.81-.56-1.31v-2.51c0-.96.75-1.75,1.71-1.8l.68-.04c.48-.03.85-.42.85-.9v-31.2c0-.25-.1-.48-.28-.65-.17-.16-.39-.25-.62-.25,0,0-15.03.79-15.06.79-.46,0-.9-.18-1.24-.49-.36-.34-.56-.81-.56-1.31v-2.51c0-.96.75-1.75,1.71-1.8,0,0,38.22-2,38.25-2,.46,0,.9.18,1.24.49.36.34.56.81.56,1.31v2.51c0,.96-.75,1.75-1.71,1.8l-15.32.8c-.48.03-.85.42-.85.9v36.56c0,.96-.75,1.75-1.71,1.8,0,0-5.82.3-5.85.3Zm-13.24-5.35c-.23,0-.46-.04-.69-.14l-2.2-.91c-.44-.18-.79-.54-.98-.98-.18-.44-.18-.94,0-1.38,2.54-6.05,4.57-12.69,6.04-19.73.18-.84.92-1.43,1.76-1.43.08,0,.16,0,.24.02l2.32.31c.49.07.94.34,1.23.74.29.41.39.92.29,1.4-1.59,7.68-3.67,14.55-6.36,20.99-.29.69-.96,1.11-1.66,1.11Zm35.29-1.47c-.33,0-.66-.09-.94-.27-.41-.25-.71-.67-.81-1.14-1.42-6.35-3.47-12.66-6.27-19.29-.37-.88,0-1.89.86-2.31l2.45-1.21c.25-.12.52-.19.8-.19.21,0,.43.04.64.12.47.18.84.54,1.03,1,2.82,6.87,4.99,13.76,6.46,20.48.21.95-.37,1.89-1.31,2.13l-2.45.62c-.15.04-.3.06-.45.06Zm-38.32-42.38c-.37,0-.74-.12-1.05-.34l-1.6-1.15c-.39-.28-.65-.7-.73-1.18-.08-.47.04-.96.32-1.35,3.85-5.28,7.06-10.83,9.53-16.49.11-.25.1-.53-.02-.77-.98-1.92-2.32-3.81-3.97-5.63-.17-.19-.41-.3-.67-.3-.33.02-.57.16-.73.38-.28.39-.71.65-1.18.73-.09.01-.19.02-.28.02-.38,0-.75-.12-1.07-.35l-1.25-.92c-.78-.57-.97-1.67-.42-2.47,4.92-7.18,8.42-15.71,10.39-25.34.17-.85.92-1.44,1.76-1.44.07,0,.14,0,.21.01l1.69.2c.5.06.96.33,1.25.74.29.41.4.93.3,1.43-.25,1.17-.54,2.38-.86,3.61-.07.28,0,.57.17.8.17.21.43.33.7.33,0,0,3.17-.16,3.2-.16.5,0,.98.21,1.32.57l2.01,2.16c.36.39.54.93.47,1.46-1.27,9.84-4.1,19.37-8.4,28.31-.14.28-.11.62.06.89.17.25.45.4.75.4l17.93-.94c.3-.02.57-.18.73-.44.15-.26.17-.57.04-.85-4.68-9.9-7.46-20.77-8.49-33.22-.08-.97.62-1.82,1.59-1.94l2.19-.25c.07,0,.14-.01.21-.01.41,0,.82.14,1.14.41.38.31.61.76.65,1.24.6,7.2,1.88,14.05,3.8,20.36.12.38.45.63.85.64h.02c.4,0,.75-.27.86-.65,1.37-4.74,2.39-9.76,3.03-14.93.03-.26-.05-.53-.23-.72-.17-.18-.41-.29-.66-.29,0,0-2.43.13-2.46.13-.46,0-.9-.18-1.24-.49-.36-.34-.56-.81-.56-1.31v-1.79c0-.96.75-1.75,1.71-1.8,0,0,5.32-.28,5.35-.28.47,0,.92.18,1.26.52l1.88,1.85c.37.36.57.87.54,1.39-.59,9.71-2.76,18.87-6.46,27.24-.1.24-.1.51,0,.74,2.42,5.25,5.34,10.03,8.91,14.63.59.77.48,1.87-.27,2.49l-1.82,1.52c-.32.27-.73.42-1.15.42-.07,0-.14,0-.21-.01-.49-.06-.93-.31-1.23-.7-1.88-2.47-3.52-4.94-5.04-7.53-.16-.28-.46-.45-.78-.45l-26.45,1.39c-.3.02-.57.18-.72.44-1.37,2.28-3.21,5.28-5.33,8.3-.28.39-.7.66-1.17.74-.1.02-.2.03-.3.03Zm6.37-35.12c-.06,0-.11,0-.17.02-.26.05-.49.22-.62.46l-1.32,2.47c-.18.34-.13.77.14,1.05,1.43,1.49,2.52,2.64,3.41,3.82.17.22.44.36.72.36.04,0,.09,0,.14-.01.33-.05.6-.28.71-.59l1.08-3.06c.1-.29.05-.6-.13-.84-1.1-1.46-2.33-2.56-3.38-3.45-.16-.14-.37-.21-.58-.21Zm3.55-8.47c-.36.02-.67.25-.8.58l-.96,2.57c-.13.34-.04.72.22.97.86.82,1.73,1.51,2.57,2.19.17.13.37.21.57.21.1,0,.2-.02.29-.05.3-.1.51-.35.58-.65.2-.88.36-1.75.53-2.65.14-.76.28-1.47.43-2.21.06-.27-.01-.56-.2-.77-.17-.2-.42-.32-.68-.32l-2.57.13Z"/><path class="cls-1" d="m433.03,119.86c-.26,0-.51-.06-.75-.16-.44-.2-.78-.58-.94-1.04-.88-2.5-1.87-4.95-2.82-7.33-.16-.4-.5-.64-.87-.64-.08,0-.16.01-.23.03-11.35,3.19-23.13,6.05-36.01,8.76-.12.03-.25.04-.37.04-.37,0-.73-.11-1.03-.32-.41-.28-.68-.72-.75-1.22l-.41-2.83c-.14-.95.49-1.84,1.44-2.03l1.67-.33c.28-.05.51-.24.64-.49,5.42-11.13,9.57-24.54,12.32-39.88.05-.27-.03-.55-.21-.75-.17-.19-.42-.31-.67-.31,0,0-16.47.86-16.5.86-.46,0-.9-.18-1.24-.49-.36-.34-.56-.81-.56-1.31v-2.87c0-.96.75-1.75,1.71-1.8l19.52-1.02c.48-.03.85-.42.85-.9v-22.68c0-.25-.1-.48-.28-.65-.17-.16-.39-.25-.62-.25,0,0-13.23.69-13.26.69-.46,0-.9-.18-1.24-.49-.36-.34-.56-.81-.56-1.31v-2.87c0-.96.75-1.75,1.71-1.8l13.4-.7c.48-.03.85-.42.85-.9v-15.8c0-.96.75-1.75,1.71-1.8,0,0,2.94-.15,2.97-.15.46,0,.9.18,1.24.49.36.34.56.81.56,1.31v15.51c0,.25.1.48.28.65.17.16.39.25.62.25,0,0,12.87-.67,12.9-.67.46,0,.9.18,1.24.49.36.34.56.81.56,1.31v2.87c0,.96-.75,1.75-1.71,1.8l-13.04.68c-.48.03-.85.42-.85.9v22.68c0,.25.1.48.28.65.17.16.39.25.62.25,0,0,21.03-1.1,21.06-1.1.46,0,.9.18,1.24.49.36.34.56.81.56,1.31v2.87c0,.96-.75,1.75-1.71,1.8l-23.96,1.26c-.42.02-.77.33-.84.75-2.03,11.71-5.65,24.4-10.75,37.72-.12.31-.06.66.16.91.17.2.42.31.68.31.07,0,.13,0,.2-.02,7.39-1.69,14.82-3.57,22.72-5.76.26-.07.47-.25.58-.5.11-.25.1-.53-.02-.77-2.92-5.8-5.96-11.17-9.31-16.41-.52-.82-.3-1.9.5-2.45l2.51-1.73c.3-.21.66-.32,1.02-.32.12,0,.24.01.36.04.48.1.9.39,1.16.8,6.93,10.92,12.4,21.98,16.26,32.87.33.92-.14,1.93-1.05,2.28l-2.86,1.1c-.21.08-.43.12-.65.12Zm-61.76-.89c-.3,0-.61-.08-.88-.23l-2.37-1.32c-.85-.47-1.17-1.53-.72-2.4,4.1-7.98,7.45-19.33,9.93-33.75.15-.87.91-1.49,1.77-1.49.07,0,.13,0,.2.01l2.78.3c.49.05.94.31,1.24.71s.42.9.33,1.39c-2.67,15.2-6.27,27.24-10.69,35.8-.22.43-.61.76-1.08.9-.17.05-.34.08-.52.08Zm3.62-54.64c-.66,0-1.29-.37-1.61-.99-1.15-2.27-2.9-4.68-5.34-7.34-.65-.71-.63-1.82.06-2.5l1.95-1.93c.34-.33.79-.52,1.27-.52h.03c.49,0,.95.21,1.28.57,2.94,3.13,5.14,6.23,6.54,9.2.21.46.23.98.04,1.45-.19.47-.57.83-1.04,1.01l-2.55.94c-.21.08-.42.11-.62.11Zm6.37-24.84c-.69,0-1.33-.39-1.63-1.05-1.06-2.31-2.72-4.79-5.06-7.57-.61-.73-.55-1.81.14-2.46l1.98-1.89c.34-.32.78-.5,1.24-.5.03,0,.06,0,.09,0,.49.03.95.25,1.28.63,2.79,3.26,4.87,6.46,6.18,9.49.2.47.2,1-.01,1.46-.21.46-.61.82-1.09.97l-2.57.82c-.18.06-.36.08-.54.08Z"/><path class="cls-1" d="m512.67,114.87c-.46,0-.9-.18-1.24-.49-.36-.34-.56-.81-.56-1.31v-43.71c0-.27-.12-.52-.32-.69-.16-.13-.37-.21-.58-.21-.05,0-.11,0-.16.01l-7.57,1.37c-.11.02-.21.03-.32.03-.61,0-1.19-.31-1.52-.84l-1.66-2.63c-.39-.61-.37-1.39.04-1.98,2.95-4.27,6.14-9.5,10.06-16.47.12-.22.15-.48.07-.72-.08-.24-.25-.43-.47-.54l-6.9-3.24c-.48-.23-.84-.65-.97-1.17l-.81-3.07c-.13-.49-.05-1.01.23-1.44,5.22-8.09,9.91-17,13.92-26.51.29-.68.95-1.1,1.66-1.1.2,0,.41.03.61.11l1.85.67c.47.17.84.52,1.04.98.2.46.2.97,0,1.43-3.6,8.3-7.89,16.62-12.74,24.74-.13.22-.16.48-.09.73.08.24.25.44.48.55l4.68,2.15c.12.06.25.08.38.08.34,0,.65-.19.81-.5,1.6-3.2,3.18-6.47,4.82-10,.3-.65.95-1.04,1.63-1.04.22,0,.45.04.67.13l1.86.75c.45.18.81.54,1,1,.18.46.17.96-.03,1.41-4.25,9.4-9.42,18.92-15.36,28.31-.19.3-.19.69.01.98.17.25.45.4.75.4.05,0,.1,0,.15-.01l12-2.07c.24-.04.45-.18.59-.38.14-.2.19-.45.14-.69-.46-2.28-.97-4.54-1.52-6.71-.23-.92.29-1.87,1.2-2.16l2.06-.66c.18-.06.36-.08.55-.08.3,0,.6.08.87.22.43.24.75.64.87,1.12,1.68,6.43,2.79,11.98,3.4,16.96.12.97-.56,1.85-1.52,2l-2.15.32c-.09.01-.18.02-.27.02-.39,0-.77-.13-1.09-.37-.39-.29-.64-.73-.7-1.21l-.25-2.03c-.03-.24-.16-.47-.36-.61-.15-.11-.34-.18-.53-.18-.05,0-.11,0-.16.01l-3.84.68c-.43.08-.74.45-.74.89v44.84c0,.96-.75,1.75-1.71,1.8,0,0-2.22.12-2.25.12Zm43.6-1.85c-1.85,0-3.42-.16-4.81-.5-4.36-1.11-7.24-4.31-8.83-9.8-.99-2.92-1.62-7.69-2.01-15.05-.09-3.17-.21-8.42-.23-15.61,0-.96.75-1.75,1.71-1.8,0,0,2.22-.12,2.25-.12.46,0,.9.18,1.24.49.36.34.56.81.56,1.3.02,9.63.14,15.15.24,17.11.9,11.34,3.07,17.01,6.83,17.79,1.19.26,2.5.39,3.93.39.39,0,.8-.01,1.22-.03,1.09-.06,2.33-.12,3.46-.31.27-.04.51-.21.64-.46.13-.24.15-.53.04-.79-1.68-3.93-2.98-7.47-3.85-10.51-.27-.95.27-1.94,1.22-2.22l2.19-.65c.17-.05.34-.08.52-.08.77,0,1.49.5,1.72,1.28,1.13,3.75,2.75,7.96,4.81,12.53.21.47.21,1.01,0,1.49l-1.39,3.06c-.22.48-.63.84-1.14.99-2.79.8-5.58,1.28-8.31,1.43-.7.04-1.37.06-2.01.06Zm-27.41-.52c-.31,0-.62-.08-.89-.24l-1.7-.97c-.82-.47-1.14-1.5-.73-2.35,3.42-7.05,5.17-17.59,5.35-32.22.01-.95.76-1.73,1.71-1.77,0,0,2.11-.11,2.14-.11.46,0,.91.18,1.25.5.36.34.56.82.55,1.32-.07,7.38-.43,13.38-1.06,17.83-.9,6.54-2.59,12.27-5.01,17.03-.22.44-.62.77-1.09.91-.17.05-.34.08-.52.08Zm-26.62-3.86c-.08,0-.15,0-.23-.01l-1.98-.25c-.48-.06-.92-.32-1.21-.71s-.41-.88-.34-1.36c1.17-7.4,1.96-15.55,2.33-24.22.04-.96.83-1.72,1.79-1.72,0,0,2.16-.01,2.17-.01.49,0,.96.2,1.3.55.34.35.52.83.5,1.33-.39,8.79-1.24,17.17-2.55,24.9-.15.88-.91,1.5-1.77,1.5Zm21.54-13.84c-.45,0-.88-.16-1.21-.47-.36-.33-.58-.79-.59-1.28-.11-3.54-.4-7.52-.87-11.83-.1-.95.55-1.81,1.49-1.97l1.74-.3c.1-.02.2-.03.3-.03.39,0,.77.13,1.09.37.4.3.65.75.7,1.25.44,4.24.75,8.36.91,12.26.04.97-.7,1.8-1.67,1.87l-1.76.12s-.08,0-.12,0Zm44.94-5.63c-.23,0-.47-.05-.69-.14-.45-.19-.8-.54-.98-.99-1.84-4.59-3.88-8.68-6.07-12.16-.51-.81-.3-1.87.48-2.43l1.61-1.14c.31-.22.67-.33,1.04-.33.12,0,.23.01.35.03.49.1.91.39,1.17.81,2.29,3.64,4.41,7.93,6.5,13.14.36.91-.06,1.94-.96,2.33l-1.74.74c-.23.1-.47.14-.71.14Zm-13.76-1.74c-.35,0-.7-.1-.99-.3-.4-.26-.68-.68-.77-1.14-.77-3.78-1.81-7.44-3.2-11.19-.33-.89.09-1.88.96-2.27l1.76-.78c.23-.1.48-.16.73-.16s.48.05.71.14c.46.2.82.57.99,1.05,1.52,4.21,2.66,8.29,3.41,12.14.19.97-.44,1.91-1.41,2.1l-1.82.37c-.12.02-.24.04-.36.04Zm-21.35-21.91c-.4,0-.79-.13-1.11-.38-.39-.3-.64-.75-.68-1.25l-.2-2.04c-.09-.92.53-1.76,1.44-1.94.27-.05.49-.22.62-.47,4.11-7.87,7.86-16.88,11.15-26.78.25-.75.95-1.23,1.71-1.23.15,0,.31.02.46.06l1.96.52c.48.13.89.45,1.12.89.24.44.28.96.12,1.43-2.69,7.98-5.76,15.64-9.14,22.77-.15.31-.11.67.1.93.17.22.44.35.71.35.05,0,.11,0,.16-.01,4.53-.83,8.77-1.66,12.62-2.46.28-.06.52-.25.64-.51.12-.26.1-.57-.04-.82-1.04-1.8-2.16-3.61-3.52-5.68-.53-.8-.33-1.88.45-2.44l1.89-1.37c.31-.22.68-.34,1.06-.34.11,0,.21,0,.32.03.48.09.91.37,1.18.78,3.34,5.04,6.28,10.3,8.99,16.08.2.43.23.93.06,1.38-.16.45-.5.82-.93,1.02l-2.1.98c-.25.11-.5.17-.76.17-.68,0-1.33-.38-1.63-1.04-.4-.86-.82-1.77-1.24-2.7-.15-.33-.47-.53-.82-.53-.07,0-.14,0-.21.02-7.61,1.79-15.72,3.34-24.11,4.59-.09.01-.18.02-.27.02Zm-2.64-23.36c-.36,0-.71-.1-1-.31l-1.64-1.1c-.82-.55-1.04-1.67-.49-2.49,5.38-8.07,9.35-16.74,11.79-25.78.21-.8.94-1.33,1.74-1.33.1,0,.21,0,.32.03l1.98.35c.5.09.94.38,1.21.81s.35.95.22,1.44c-2.66,9.75-6.9,19.03-12.61,27.59-.27.4-.68.67-1.15.77-.12.02-.23.03-.35.03Zm34.24-2.28c-.1,0-.21,0-.31-.03-.48-.08-.91-.36-1.18-.76-6.42-9.5-11.28-19.29-14.45-29.1-.3-.93.2-1.93,1.12-2.25l2.21-.77c.19-.07.39-.1.59-.1.28,0,.55.06.8.19.43.22.76.6.91,1.06,2.99,9.24,7.59,18.53,13.67,27.61.54.8.35,1.89-.44,2.46l-1.88,1.36c-.31.22-.68.34-1.06.34Z"/><path class="cls-1" d="m635.26,108.75c-.26,0-.51-.06-.75-.17-.46-.21-.81-.6-.96-1.08l-.74-2.28c-.29-.89.16-1.86,1.02-2.22,6.76-2.81,12.59-6.8,17.32-11.84.35-.38.83-.57,1.31-.57.4,0,.79.13,1.12.39l1.83,1.47c.39.31.63.77.67,1.26.04.5-.13.99-.46,1.35-5.27,5.79-11.71,10.21-19.68,13.54-.22.09-.46.14-.69.14Zm52.83-2.65c-.43,0-.86-.15-1.2-.46-4.03-3.59-9.97-7.09-17.66-10.41-.44-.19-.79-.55-.97-1.01s-.16-.95.04-1.39l1.27-2.79c.11-.25.28-.47.49-.64-.18-.12-.35-.28-.48-.46-.17-.24-.44-.38-.74-.38l-14.81.77c-.21.01-.41.1-.57.24-.34.32-.79.49-1.23.49-.38,0-.77-.12-1.09-.37-.16-.12-.35-.18-.54-.18l-5.81.3c-.44.02-.8.37-.85.8-.09.88-.81,1.56-1.7,1.61,0,0-2.6.14-2.63.14-.46,0-.9-.18-1.24-.49-.36-.34-.56-.81-.56-1.31v-42.35c0-.96.75-1.75,1.71-1.8,0,0,46.5-2.44,46.53-2.44.46,0,.9.18,1.24.49.36.34.56.81.56,1.31v42.35c0,.96-.75,1.75-1.71,1.8,0,0-2.64.14-2.67.14-.84,0-1.58-.59-1.76-1.43-.04-.18-.13-.34-.26-.46-.17-.16-.39-.25-.62-.25l-7.49.39c-.31.02-.58.19-.74.46-.11.2-.25.37-.42.51.18.12.34.27.48.46.09.13.21.23.36.29,7.92,3.6,14.05,7.33,18.21,11.11.37.34.59.82.59,1.32s-.21.99-.57,1.33l-1.95,1.81c-.35.32-.79.48-1.23.48Zm-43.28-28.99c-.48.03-.85.42-.85.9v4.8c0,.25.1.48.28.65.17.16.39.25.62.25l36.05-1.89c.48-.03.85-.42.85-.9v-4.8c0-.25-.1-.48-.28-.65-.17-.16-.39-.25-.62-.25l-36.05,1.89Zm0-12.6c-.48.03-.85.42-.85.9v5.04c0,.25.1.48.28.65.17.16.39.25.62.25l36.05-1.89c.48-.03.85-.42.85-.9v-5.04c0-.25-.1-.48-.28-.65-.17-.16-.39-.25-.62-.25l-36.05,1.89Zm0-12.24c-.48.03-.85.42-.85.9v4.8c0,.25.1.48.28.65.17.16.39.25.62.25l36.05-1.89c.48-.03.85-.42.85-.9v-4.8c0-.25-.1-.48-.28-.65-.17-.16-.39-.25-.62-.25l-36.05,1.89Zm-12.13-9.57c-.46,0-.9-.18-1.24-.49-.36-.34-.56-.81-.56-1.31V5.51c0-.96.75-1.75,1.71-1.8,0,0,28.02-1.47,28.05-1.47.46,0,.9.18,1.24.49.36.34.56.81.56,1.31v1.67c0,.96-.75,1.75-1.71,1.8l-8.24.43c-.48.03-.85.42-.85.9v4.2c0,.25.1.48.28.65.17.16.39.25.62.25,0,0,5.67-.29,5.7-.29.46,0,.9.18,1.24.49.36.34.56.81.56,1.31v12.35c0,.96-.75,1.75-1.71,1.8l-5.84.31c-.48.03-.85.42-.85.9v4.68c0,.25.1.48.28.65.17.16.39.25.62.25,0,0,9.27-.48,9.3-.48.46,0,.9.18,1.24.49.36.34.56.81.56,1.31v1.67c0,.96-.75,1.75-1.71,1.8,0,0-29.22,1.53-29.25,1.53Zm4.45-11.99c-.48.03-.85.42-.85.9v4.68c0,.25.1.48.28.65.17.16.39.25.62.25l8.21-.43c.48-.03.85-.42.85-.9v-4.68c0-.25-.1-.48-.28-.65-.17-.16-.39-.25-.62-.25l-8.21.43Zm0-10.56c-.48.03-.85.42-.85.9v3.48c0,.25.1.48.28.65.17.16.39.25.62.25l16.61-.87c.48-.03.85-.42.85-.9v-3.48c0-.25-.1-.48-.28-.65-.17-.16-.39-.25-.62-.25l-16.61.87Zm0-11.4c-.48.03-.85.42-.85.9v4.2c0,.25.1.48.28.65.17.16.39.25.62.25l8.21-.43c.48-.03.85-.42.85-.9v-4.2c0-.25-.1-.48-.28-.65-.17-.16-.39-.25-.62-.25l-8.21.43Zm36.83,26.87c-.46,0-.9-.18-1.24-.49-.36-.34-.56-.81-.56-1.31v-2.15c0-.96.75-1.75,1.71-1.8,0,0,20.34-1.06,20.37-1.06.46,0,.9.18,1.24.49.36.34.56.81.56,1.31v2.15c0,.96-.75,1.75-1.71,1.8,0,0-20.34,1.06-20.37,1.06Zm-5.78-9.83c-.24,0-.48-.05-.7-.14l-1.85-.78c-.91-.38-1.34-1.44-.96-2.35,2.39-5.75,4.14-12.61,5.35-20.98.13-.89.89-1.54,1.78-1.54.04,0,2.27.13,2.27.13.5.03.97.27,1.29.66s.46.9.38,1.4c-.34,2.26-.76,4.44-1.17,6.47-.05.27.02.56.2.76.17.2.42.31.68.31,0,0,20.31-1.06,20.34-1.06.46,0,.9.18,1.24.49.36.34.56.81.56,1.31v2.15c0,.96-.75,1.75-1.71,1.8l-22.28,1.17c-.38.02-.71.28-.81.64-.95,3.19-1.92,5.95-2.95,8.44-.18.44-.54.79-.98.98-.22.09-.45.13-.68.13Z"/><path class="cls-1" d="m.03,178.56c1.45-7.45,7.62-15.67,13.41-19.22,1.36-.85,2.98-1.6,4.59-1.68,1.56-.11,3.06.42,4.09,1.88,1.92,2.68,1.36,7.28.78,10.27-.56,2.88-1.39,5.69-2.34,8.4-1.06,3.13-2.28,6.2-3.56,9.21-.53,1.23-1.06,2.44-1.61,3.65-1.84,4.02-5.31,11.09-7.51,14.86-1,1.74-3.09,5.34-4.65,6.31-.28.19-.64.24-.97.12-.33-.12-.64-.37-.81-.72l-.11-.21c-.39-.72-.2-1.63.45-2.01.42-.25,1.06-1.19,1.36-1.6.86-1.2,1.61-2.48,2.37-3.79,3.64-6.77,5.57-10.63,7.35-14.54.56-1.18,1.06-2.35,1.59-3.56,1.25-2.93,2.42-5.93,3.48-8.98.89-2.6,1.7-5.24,2.23-7.98.33-1.78.97-5.89-.17-7.5-.42-.58-1.06-.68-1.64-.64-1.17.08-2.45.73-3.45,1.33-5.12,3.14-10.82,10.64-12.08,17.24-.17.79-.86,1.26-1.56,1.03l-.22-.07c-.7-.2-1.14-1.01-1-1.79Z"/><path class="cls-1" d="m28.02,192.49c1.11-1.53,2.31-3,3.62-4.32,1.56-1.56,3.67-3.21,5.9-3.08,1.73.08,2.75,1.37,2.75,3.29.03,1.89-.86,4.29-1.45,6.03-1.03,2.97-1.81,5.52,1.03,4.71,6.59-1.88,11.24-6.83,16.95-10.45.61-.41,2.25,1.71.36,3.17-4.84,3.43-9.63,8.44-16.5,10.39-3.26.92-6.62.33-5.84-4.38.25-1.63.83-3.2,1.36-4.74,1.45-4.28,1.47-6.48-2.64-2.46-1.84,1.83-3.45,4.05-4.92,6.25-.67.99-1.67,2.48-2.62,3.1-.7.49-1.59.47-2.2-.29-.42-.53-.53-1.19-.47-1.86.11-1.29.67-2.86,1.11-4.03.2-.57.39-1.11.58-1.68.14-.37.28-.74.39-1.11.39-1.36,2.11-1.12,2.62.01.14.38.17.77.06,1.14-.03.11-.06.2-.08.31Z"/><path class="cls-1" d="m67.12,174.59c-2.75,3.62-9.57,16.59-8.88,21.02,1.08,6.99,19.17-6.8,23.04-9.32,1.81-1.18,2.78,1.31,1.08,2.65-5.87,4.7-24.35,17.54-27.16,8.38-1.67-5.45,4.59-16.52,8.01-22.16-15.05,3.31-8.4,5.46-11.91,7.18-2.42,1.17-5.06-5.94,9.74-9.78,1.47-.38,3.03-.74,4.51-1.01,2.03-3.18,10.3-15.05,11.77-16.63,1.45-1.58,4.48-.2,3.03,1.43-2.11,2.43-7.65,9.83-10.88,14.73,3.48-.47,7.49-.89,10.94-1.1,1.89-.13,1.25,3.14-.67,3.27-3.98.25-8.63.74-12.63,1.33Z"/><path class="cls-1" d="m82.91,189.88c-.39,1.7.03,2.84,1.73,3.83,1.72,1.08,4.09,1.22,5.96,1,6.79-.75,12.24-5.37,18.11-9.42,1.34-1.21,3.17,1.34,1.84,2.54-6.29,4.45-12.19,8.76-19.48,9.79-10.94,1.52-14.64-7.83-7.57-15.14,7.07-7.31,10.63-.97,4.87,4.53-1.81,1.74-3.95,2.56-5.45,2.86Zm1.7-3.74c.97.18,3.31-2.9,2.75-2.67-.58.24-2.67,2.22-2.75,2.67Z"/><path class="cls-1" d="m111.63,184.31c.75.14,3.73.21,4.59.99.61.54,1.17,1.5.81,3.34-.31.8-.39,1.59-.58,2.43-.33,2.03.17,3.36,2.37,2.73,4.31-1.19,11.88-7.37,14.47-10.17,1.28-1.37,2.73-.02,2.92.33l.11.21c.36.73,0,1.42-.61,1.8-3.67,2.59-15.3,13.21-20.7,10.35-.64-.35-1.17-.87-1.5-1.56-.83-1.64-.53-3.83.03-5.68.14-.54.36-1.53-.75-1.62-2.39-.25-3.12-.34-3.81-.51-.89-.19-1.75-.55-2.42-1.28t-.06-.05c-.7-.87-.89-2-.78-3.12.86-7.41,9.49-6.51,5.98,1.58l-.06.23Zm-2.95-.68c1.95-3.5.11-3.26-.17-.57-.03.22-.03.45.17.57Z"/><path class="cls-1" d="m136.37,184.91c1.11-1.53,2.31-3,3.62-4.32,1.56-1.56,3.67-3.21,5.9-3.08,1.73.08,2.76,1.37,2.76,3.29.03,1.89-.86,4.29-1.45,6.03-1.03,2.97-1.81,5.53,1.03,4.72,6.59-1.88,11.24-6.83,16.95-10.45.61-.4,2.25,1.71.36,3.18-4.84,3.43-9.63,8.44-16.5,10.39-3.26.92-6.62.32-5.84-4.38.25-1.63.83-3.2,1.36-4.74,1.45-4.28,1.47-6.48-2.64-2.46-1.84,1.83-3.45,4.05-4.92,6.25-.67.99-1.67,2.48-2.62,3.1-.7.49-1.59.47-2.2-.29-.42-.53-.53-1.19-.47-1.86.11-1.29.67-2.86,1.11-4.03.2-.57.39-1.11.58-1.68.14-.37.28-.74.39-1.11.39-1.36,2.11-1.12,2.62.01.14.38.17.77.06,1.14-.03.11-.06.2-.08.31Z"/><path class="cls-1" d="m175.73,180.8c-.75.8-1.47,1.63-2.2,2.44-.7.77-1.42,1.55-2.17,2.27-.64.63-1.31,1.26-2.03,1.81-1.14.83-2.73,1.72-4.15,1.21-.97-.35-1.59-1.25-1.78-2.35-.17-.91-.03-1.89.22-2.74.58-2.04,1.84-3.83,3.31-5.13,1.84-1.63,4.56-2.71,6.96-2.24.47.11.86.5,1.03.99.28-.3.56-.6.83-.89.58-.6,1.31-1.32,2.25-1.11,1.14.28,1.39,1.24,1.34,2.16-1.75,17.04,10.46,5.7,15.55.97.95-.87,2.28-1.13,2.56.38.25,1.32-.81,2.23-2,3.31-3.95,3.64-17.73,14.4-19.59,1.06-.11-.69-.17-1.41-.14-2.13Zm-2.67-1.65c-1.45-.09-3.12.69-4.17,1.6-1.14.94-2.11,2.29-2.56,3.82-.06.23-.14.57-.17.87.5-.15,1.25-.64,1.53-.86.64-.46,1.22-1,1.78-1.57.7-.69,1.39-1.41,2.06-2.15.5-.56,1.03-1.13,1.53-1.72Z"/><path class="cls-1" d="m205.67,164.9c-2.75,3.62-9.57,16.59-8.88,21.02,1.08,6.99,19.17-6.8,23.04-9.32,1.81-1.18,2.78,1.31,1.08,2.65-5.87,4.7-24.35,17.54-27.16,8.38-1.67-5.45,4.59-16.52,8.01-22.16-15.05,3.31-8.4,5.46-11.91,7.18-2.42,1.17-5.06-5.93,9.74-9.78,1.47-.38,3.03-.74,4.51-1.01,2.03-3.17,10.29-15.05,11.77-16.63,1.45-1.58,4.48-.2,3.03,1.43-2.11,2.43-7.65,9.83-10.88,14.73,3.48-.47,7.49-.89,10.94-1.1,1.89-.13,1.25,3.14-.67,3.28-3.98.25-8.62.74-12.63,1.33Z"/><path class="cls-1" d="m222.68,178.66c-1.28,3.32-.7,4.67.86,4.84,3.65.41,12.61-5.56,15.83-8.23.75-.55,1.84-.3,2.25.4.36.59,0,1.59-.72,2.19-1.78,1.52-6.04,4.46-10.3,6.57-3.53,1.75-7.1,2.92-9.35,2.24-1.75-.52-2.73-2.15-2.28-5.49.17-1.15.47-2.48.97-4.05.25-.74,1.14-.97,1.81-.57l.19.13c.33.17.67.48.78.87.11.38.08.77-.06,1.12Zm1.84-5.72l-.25.6c-.36.86-1.31,1.18-2.11.73l-.22-.12c-.81-.45-1.14-1.54-.78-2.37l.25-.6c.39-.83,1.33-1.18,2.11-.73l.25.15c.78.45,1.14,1.51.75,2.34Z"/><path class="cls-1" d="m248.42,182.45c-.67.91-1.59,1.95-2.42,2.62-1.25,1.03-3,1.94-4.67,1.47-1.06-.29-1.92-1.06-2.5-2.11-.53-.99-.78-2.15-.81-3.26,0-1.17.22-2.33.67-3.33.08-.17.14-.31.22-.46-.08-.33-.14-.63-.2-.96-.14-1.16.03-2.31.42-3.34s.97-1.96,1.64-2.76c1.7-1.93,4.31-3.22,6.87-2.37.42.14.81.33,1.2.58,1.11.79,1.84,2.04,2.2,3.44.33,1.45.31,2.96.03,4.37-.19,1.07-.53,2.24-.92,3.21,6.9-.12,12.13-3.63,16.33-6.29.31-.16.67-.16,1-.02.33.14.58.43.75.81l.11.21c.17.43.08.91-.14,1.26-.42.67-5.62,3.34-6.79,3.9-3.87,1.88-7.51,3.14-12.99,3.02Zm-3.84-.37c-.86-.22-1.81-.46-2.59-.9-.36-.23-.72-.45-1.06-.73-.06.31-.08.65-.08.98,0,.5.08,1.05.33,1.48.14.27.33.45.58.52.83.25,2.28-.72,2.81-1.34Zm2.2-2.71c.17-.29.33-.61.5-.93.45-.92.83-1.95,1.03-3.02.17-.88.22-1.94,0-2.84-.14-.52-.36-1.03-.81-1.33-.14-.1-.28-.18-.42-.22-1.53-.51-3.23.56-4.23,1.69-.45.5-.83,1.12-1.08,1.77.39-.19.81-.36,1.22-.47.67-.19,1.42.29,1.64,1.08l.08.25c.22.79-.14,1.6-.81,1.81-.53.15-1.03.38-1.47.74.22.18.45.33.67.46,1.09.62,2.45.91,3.67,1.02Z"/><path class="cls-1" d="m268.13,175.7c1.11-1.53,2.31-3,3.62-4.32,1.56-1.56,3.67-3.21,5.9-3.08,1.73.07,2.75,1.37,2.75,3.29.03,1.89-.86,4.29-1.45,6.03-1.03,2.97-1.81,5.53,1.03,4.71,6.6-1.88,11.24-6.83,16.95-10.45.61-.41,2.25,1.71.36,3.17-4.84,3.43-9.63,8.44-16.5,10.39-3.26.92-6.62.33-5.84-4.38.25-1.63.83-3.2,1.36-4.74,1.45-4.28,1.48-6.48-2.64-2.46-1.84,1.83-3.45,4.05-4.93,6.24-.67.99-1.67,2.48-2.62,3.1-.7.49-1.59.47-2.2-.29-.42-.53-.53-1.19-.47-1.86.11-1.29.67-2.86,1.11-4.03.19-.57.39-1.11.58-1.68.14-.37.28-.74.39-1.11.39-1.36,2.12-1.12,2.62.01.14.38.17.77.06,1.14-.03.11-.06.2-.08.31Z"/><path class="cls-1" d="m307.48,171.58c-.75.8-1.47,1.63-2.2,2.44-.7.77-1.42,1.55-2.17,2.27-.64.63-1.31,1.26-2.03,1.81-1.14.83-2.73,1.72-4.14,1.21-.97-.35-1.59-1.25-1.78-2.35-.17-.91-.03-1.89.22-2.74.58-2.04,1.84-3.83,3.31-5.13,1.84-1.63,4.56-2.71,6.96-2.24.47.11.86.5,1.03.98.28-.3.56-.6.83-.89.58-.6,1.31-1.32,2.25-1.1,1.14.28,1.39,1.24,1.33,2.16-1.75,17.04,10.46,5.7,15.55.97.95-.87,2.28-1.13,2.56.38.25,1.32-.81,2.23-2,3.31-3.95,3.64-17.73,14.4-19.59,1.06-.11-.69-.17-1.41-.14-2.13Zm-2.67-1.65c-1.45-.09-3.12.69-4.17,1.6-1.14.94-2.11,2.29-2.56,3.83-.06.23-.14.57-.17.87.5-.15,1.25-.64,1.53-.86.64-.46,1.22-1,1.78-1.57.7-.69,1.39-1.41,2.06-2.15.5-.56,1.03-1.13,1.53-1.72Z"/><path class="cls-1" d="m329.11,171.69c.06.27.06.55.14.8,2.67,10.75,17.67.88,23.32-4.61.56-.54,1.36-.43,1.86.2l.14.19c.47.63.22,1.32-.31,1.86-6.82,6.57-24.4,17.32-27.77,2.89-.86-3.64,0-7.65,1.06-11.04.86-2.79,2.03-5.49,3.34-8.03,1.92-3.72,4.2-7.39,7.01-10.29,1.81-1.88,4.09-3.68,6.51-4.32,2-.5,4.2-.18,5.56,1.84,1.39,2.05,1.22,4.84.61,7.08-1.09,4.08-3.84,7.98-6.46,10.94-4.34,4.95-9.63,9.02-15.03,12.49Zm.06-3.84c4.62-3.08,9.15-6.68,12.91-10.95,2.28-2.58,4.87-6.13,5.81-9.73.31-1.13.61-3.05-.11-4.11-.58-.88-1.78-.79-2.59-.57-1.95.5-3.9,2.11-5.34,3.6-2.59,2.71-4.73,6.12-6.51,9.58-1.75,3.49-3.65,7.94-4.17,12.18Z"/><path class="cls-1" d="m413.02,130.58c-.67,1.55-1.39,3.05-2.09,4.57-2.81,6.04-5.59,12.11-8.1,18.35-1.47,3.69-2.89,7.47-4.04,11.3-.92,3.15-2.56,9.39-1.47,12.49.11.35.31.7.56.99,1.64,1.81,5.95-.17,7.85-1.11,2.25-1.16,4.54-2.35,6.79-3.54,1.42-.71,2.81-1.45,4.23-2.16,1.06-.55,2.12-1.07,3.17-1.5,1.59-.67,3.2-1.2,4.84-1.09,1.03.04,2.03.3,2.98.68.67.26,1,1.1.72,1.87l-.08.23c-.11.37-.36.69-.7.86-.31.19-.67.21-1,.1-.7-.29-1.45-.48-2.2-.54-1.25-.05-2.53.4-3.73.9-1.03.43-2.03.92-3,1.41-1.42.71-2.78,1.45-4.17,2.16-2.28,1.19-4.56,2.38-6.84,3.54-1.28.65-2.62,1.24-3.98,1.64-3.26.98-6.73.81-8.07-3.11-1.14-3.26-.22-8.08.61-11.51.58-2.41,1.33-4.8,2.14-7.16.86-2.54,1.81-5.05,2.81-7.52,2.5-6.33,5.34-12.51,8.21-18.64.67-1.49,1.39-2.96,2.03-4.46.33-.75,1.11-1.11,1.75-.79l.2.1c.64.32.92,1.19.58,1.93Z"/><path class="cls-1" d="m436.96,162.53c-.75.8-1.48,1.63-2.2,2.44-.7.77-1.42,1.55-2.17,2.27-.64.63-1.31,1.26-2.03,1.81-1.14.83-2.73,1.72-4.15,1.21-.97-.35-1.59-1.25-1.78-2.35-.17-.91-.03-1.89.22-2.74.58-2.04,1.84-3.83,3.31-5.13,1.84-1.63,4.56-2.71,6.96-2.24.47.11.86.5,1.03.98.28-.3.56-.6.83-.89.58-.6,1.31-1.32,2.25-1.1,1.14.28,1.39,1.24,1.34,2.16-1.75,17.04,10.46,5.7,15.55.97.95-.87,2.28-1.13,2.56.38.25,1.32-.81,2.23-2,3.31-3.95,3.64-17.72,14.4-19.59,1.06-.11-.69-.17-1.41-.14-2.13Zm-2.67-1.65c-1.45-.09-3.12.69-4.17,1.6-1.14.94-2.11,2.29-2.56,3.83-.06.23-.14.57-.17.87.5-.15,1.25-.64,1.53-.86.64-.46,1.22-1,1.78-1.57.7-.69,1.39-1.41,2.06-2.15.5-.56,1.03-1.13,1.53-1.72Z"/><path class="cls-1" d="m467.32,165.19c-.25-.59-.36-1.2-.39-1.84,0-1.36.5-2.74,1.22-3.79.45-.59,1-1.18,1.72-1.26,1.06-.1,1.81.76,1.98,1.87.08.63,0,1.34-.14,1.96-.17.9-.47,1.79-.83,2.62,4.92,2.66,16.56-5.05,20.26-7.09.31-.13.67-.13,1,.01.33.14.58.43.72.81l.11.21c.31.76-.36,1.64-1.03,1.94-6.15,2.99-16.61,9.71-22.51,6.83-.89,1.34-1.95,2.56-3.14,3.56-1.22,1.03-3.2,2.37-4.76,1.08-.97-.79-1.22-2.17-1.28-3.39,0-.33,0-.64.03-.98-.5.68-1,1.32-1.53,1.94-.28.3-.53.57-.83.81-.58.46-1.31.79-2.06.48-1.36-.54-1.64-2.36-1.5-3.68.08-.9.28-1.77.47-2.68.28-1.27.61-2.52.95-3.77.22-.77,1.25-1.17,1.92-.89l.19.07c.7.29,1.09,1.15.86,1.92-.25.91-.5,1.82-.72,2.75-.53,2.18-.14,1.18.7-.05.53-.79,1.03-1.57,1.56-2.39.31-.5.64-1.02.97-1.49.47-.67,1.03-1.3,1.89-1,.81.28,1.22,1.22,1,2.13-.28,1.19-.53,2.4-.75,3.62-.42,2.42-.67,4.5,1.17,2.87,1.06-.88,2-1.98,2.75-3.2Z"/><path class="cls-1" d="m559.47,134.51c.33-1.58.53-3.21.53-4.82-.03-1.56-.28-3.32-1-4.72-.5-.91-1.17-1.62-2.09-1.92-.25-.09-.53-.13-.78-.14-1.75-.07-3.73,1.07-5.12,2.11-2.25,1.63-4.29,3.86-6.04,6.13-3.9,5.03-7.32,11.7-8.79,18.29-.81,3.56-1.5,8.51-.22,12.12.81,2.2,2.25,3.57,4.23,4.24,2.42.86,5.29.58,7.68.08,7.6-1.64,16.64-7.23,22.04-13.29.5-.56,1.34-.54,1.86.06l.14.16c.53.6.56,1.55.06,2.11-5.79,6.47-15.3,12.34-23.43,14.11-2.87.62-6.12.85-9.04-.15-2.84-1-4.98-3.08-6.12-6.25-1.59-4.37-.89-9.82.05-14.14,1.59-7.04,5.2-14.11,9.38-19.5,1.92-2.53,4.15-4.91,6.62-6.73,1.89-1.38,4.29-2.67,6.65-2.55.5.02,1,.1,1.47.26,1.67.52,2.98,1.8,3.84,3.46,1.03,1.93,1.39,4.19,1.42,6.36.03,1.89-.2,3.77-.56,5.58-.17.79-.89,1.26-1.59,1.03l-.19-.07c-.36-.11-.64-.37-.83-.72-.17-.35-.22-.74-.17-1.1Z"/><path class="cls-1" d="m578.84,159.34c-.67.91-1.59,1.95-2.42,2.62-1.25,1.03-3.01,1.94-4.67,1.47-1.06-.29-1.92-1.06-2.5-2.11-.53-.99-.78-2.14-.81-3.26,0-1.17.22-2.33.67-3.33.08-.17.14-.32.22-.46-.08-.33-.14-.63-.2-.96-.14-1.16.03-2.31.42-3.34s.97-1.96,1.64-2.76c1.7-1.93,4.31-3.22,6.87-2.37.42.14.81.33,1.2.58,1.11.79,1.84,2.04,2.2,3.44.33,1.45.31,2.96.03,4.37-.19,1.07-.53,2.24-.92,3.21,6.9-.12,12.13-3.63,16.33-6.29.31-.16.67-.16,1-.01.33.14.58.43.75.81l.11.21c.17.43.08.91-.14,1.26-.42.67-5.62,3.34-6.79,3.9-3.87,1.88-7.51,3.14-12.99,3.02Zm-3.84-.37c-.86-.22-1.81-.46-2.59-.9-.36-.23-.72-.45-1.06-.73-.06.31-.08.65-.08.98,0,.5.08,1.05.33,1.48.14.27.33.45.58.52.83.25,2.28-.72,2.81-1.34Zm2.2-2.71c.17-.29.33-.61.5-.93.45-.92.83-1.95,1.03-3.02.17-.88.22-1.94,0-2.84-.14-.52-.36-1.03-.81-1.33-.14-.1-.28-.18-.42-.22-1.53-.5-3.23.56-4.23,1.69-.45.5-.83,1.12-1.09,1.77.39-.19.81-.36,1.22-.47.67-.19,1.42.29,1.64,1.08l.08.25c.22.79-.14,1.6-.81,1.81-.53.15-1.03.38-1.47.74.22.18.45.33.67.46,1.08.62,2.45.91,3.67,1.02Z"/><path class="cls-1" d="m598.5,152.85c.06.27.06.55.14.8,2.67,10.75,17.67.88,23.32-4.61.56-.54,1.36-.43,1.86.2l.14.18c.47.63.22,1.32-.31,1.86-6.82,6.57-24.4,17.32-27.77,2.89-.86-3.64,0-7.65,1.06-11.04.86-2.79,2.03-5.49,3.34-8.03,1.92-3.73,4.2-7.39,7.01-10.29,1.81-1.88,4.09-3.68,6.51-4.33,2-.5,4.2-.18,5.57,1.84,1.39,2.04,1.22,4.84.61,7.08-1.08,4.08-3.84,7.98-6.46,10.94-4.34,4.95-9.63,9.02-15.02,12.49Zm.06-3.84c4.62-3.08,9.15-6.68,12.91-10.95,2.28-2.58,4.87-6.13,5.82-9.73.31-1.13.61-3.05-.11-4.11-.58-.88-1.78-.79-2.59-.57-1.95.5-3.9,2.11-5.34,3.6-2.59,2.71-4.73,6.12-6.51,9.58-1.75,3.49-3.65,7.94-4.17,12.18Z"/><path class="cls-1" d="m624.07,151.06c.06.27.06.55.14.8,2.67,10.75,17.67.88,23.32-4.61.56-.54,1.36-.43,1.86.2l.14.18c.47.63.22,1.32-.31,1.86-6.82,6.57-24.4,17.32-27.77,2.89-.86-3.64,0-7.65,1.06-11.04.86-2.79,2.03-5.49,3.34-8.03,1.92-3.72,4.2-7.39,7.01-10.29,1.81-1.88,4.09-3.68,6.51-4.32,2-.5,4.2-.18,5.57,1.84,1.39,2.04,1.22,4.84.61,7.08-1.08,4.08-3.84,7.98-6.46,10.94-4.34,4.95-9.63,9.02-15.03,12.49Zm.06-3.84c4.62-3.08,9.15-6.68,12.91-10.95,2.28-2.58,4.87-6.13,5.82-9.73.31-1.13.61-3.05-.11-4.11-.58-.88-1.78-.79-2.59-.57-1.95.5-3.9,2.11-5.34,3.6-2.59,2.71-4.73,6.12-6.51,9.58-1.75,3.49-3.65,7.94-4.17,12.18Z"/><path class="cls-1" d="m648.9,150.3c-.39,1.7.03,2.84,1.72,3.83,1.73,1.08,4.09,1.22,5.96,1,6.79-.75,12.24-5.36,18.11-9.42,1.34-1.21,3.17,1.34,1.84,2.54-6.29,4.45-12.19,8.76-19.48,9.79-10.93,1.52-14.64-7.83-7.57-15.14,7.07-7.31,10.63-.97,4.87,4.53-1.81,1.74-3.95,2.56-5.45,2.86Zm1.7-3.74c.97.18,3.31-2.9,2.75-2.67-.58.24-2.67,2.22-2.75,2.67Z"/><path class="cls-1" d="m682.63,146.77c.42-.59,1.03-1.57.95-2.35,0-.2-.08-.33-.2-.46-.17-.21-.42-.3-.64-.34-1.14-.25-2.48.48-3.42,1.24-.75.61-1.42,1.38-1.98,2.2-.5.79-.95,1.71-1.11,2.64-.14.71-.11,1.37.22,1.93.14.27.33.48.56.66,3.4,2.8,13.11-1.86,19.92-5.62,3.42-1.88,6.15-3.94,6.87-3.93.33-.02.64.12.89.41l.14.18c.44.58.25,1.62-.39,2.09-5.46,3.97-23.85,13.94-29.19,9.55-.47-.38-.86-.86-1.17-1.39-.72-1.23-.89-2.72-.61-4.27.25-1.44.89-2.84,1.67-4.04.75-1.14,1.67-2.15,2.67-2.97,1.64-1.37,3.73-2.29,5.65-1.87.75.17,1.42.51,1.95,1.09.56.6.89,1.41.97,2.3.17,1.77-.64,3.52-1.67,4.93-.47.65-1.31.76-1.84.27l-.17-.16c-.53-.49-.56-1.44-.08-2.08Z"/><path class="cls-1" d="m713.19,129.41c-2.75,3.62-9.57,16.59-8.88,21.02,1.08,6.99,19.17-6.8,23.04-9.32,1.81-1.18,2.78,1.31,1.08,2.65-5.87,4.7-24.35,17.54-27.16,8.38-1.67-5.45,4.59-16.52,8.01-22.16-15.05,3.31-8.4,5.46-11.91,7.18-2.42,1.17-5.06-5.93,9.74-9.78,1.47-.38,3.03-.74,4.51-1.01,2.03-3.17,10.29-15.05,11.77-16.63,1.45-1.58,4.48-.2,3.03,1.43-2.11,2.43-7.65,9.83-10.88,14.73,3.48-.47,7.48-.89,10.94-1.1,1.89-.13,1.25,3.14-.67,3.28-3.98.25-8.62.74-12.63,1.33Z"/><path class="cls-1" d="m730.2,143.17c-1.28,3.32-.7,4.67.86,4.84,3.64.41,12.6-5.56,15.83-8.23.75-.55,1.84-.3,2.25.4.36.59,0,1.59-.72,2.19-1.78,1.52-6.04,4.46-10.29,6.56-3.53,1.75-7.1,2.92-9.35,2.24-1.75-.52-2.73-2.15-2.28-5.49.17-1.15.47-2.48.97-4.05.25-.74,1.14-.97,1.81-.57l.19.13c.33.17.67.48.78.86.11.38.08.77-.06,1.12Zm1.84-5.72l-.25.6c-.36.86-1.31,1.18-2.11.73l-.22-.12c-.81-.45-1.14-1.54-.78-2.37l.25-.6c.39-.83,1.33-1.18,2.11-.73l.25.15c.78.45,1.14,1.51.75,2.34Z"/><path class="cls-1" d="m755.94,146.96c-.67.91-1.59,1.95-2.42,2.62-1.25,1.03-3,1.94-4.67,1.47-1.06-.29-1.92-1.06-2.5-2.11-.53-.99-.78-2.14-.81-3.26,0-1.17.22-2.33.67-3.33.08-.17.14-.32.22-.46-.08-.33-.14-.63-.2-.96-.14-1.16.03-2.31.42-3.34s.97-1.96,1.64-2.76c1.7-1.93,4.31-3.22,6.87-2.37.42.14.81.33,1.2.58,1.11.79,1.84,2.04,2.2,3.44.33,1.45.31,2.96.03,4.37-.19,1.07-.53,2.24-.92,3.21,6.9-.12,12.13-3.63,16.33-6.29.31-.16.67-.16,1-.01.33.14.58.43.75.81l.11.21c.17.43.08.91-.14,1.26-.42.67-5.62,3.34-6.79,3.9-3.87,1.88-7.51,3.14-12.99,3.02Zm-3.84-.37c-.86-.22-1.81-.46-2.59-.9-.36-.23-.72-.45-1.06-.73-.06.31-.08.65-.08.98,0,.5.08,1.05.33,1.48.14.27.33.45.58.52.83.25,2.28-.72,2.81-1.34Zm2.2-2.71c.17-.29.33-.61.5-.93.45-.92.83-1.95,1.03-3.02.17-.88.22-1.94,0-2.84-.14-.52-.36-1.03-.81-1.33-.14-.1-.28-.18-.42-.22-1.53-.5-3.23.56-4.23,1.69-.45.5-.83,1.12-1.08,1.77.39-.19.81-.36,1.22-.47.67-.19,1.42.29,1.64,1.08l.08.25c.22.79-.14,1.6-.81,1.81-.53.15-1.03.38-1.47.74.22.18.45.33.67.46,1.09.62,2.45.91,3.67,1.02Z"/><path class="cls-1" d="m775.65,140.21c1.11-1.52,2.31-3,3.62-4.32,1.56-1.56,3.67-3.21,5.9-3.08,1.73.07,2.75,1.37,2.75,3.29.03,1.89-.86,4.29-1.45,6.03-1.03,2.97-1.81,5.53,1.03,4.72,6.6-1.88,11.24-6.83,16.95-10.45.61-.41,2.25,1.71.36,3.17-4.84,3.43-9.63,8.44-16.5,10.39-3.26.92-6.62.32-5.84-4.38.25-1.63.83-3.2,1.36-4.74,1.45-4.28,1.48-6.48-2.64-2.46-1.84,1.83-3.45,4.05-4.93,6.25-.67.99-1.67,2.48-2.62,3.1-.7.49-1.59.47-2.2-.29-.42-.53-.53-1.19-.47-1.86.11-1.29.67-2.86,1.11-4.03.19-.57.39-1.11.58-1.68.14-.37.28-.74.39-1.11.39-1.36,2.12-1.12,2.62.01.14.38.17.77.06,1.14-.03.11-.06.2-.08.31Z"/></g></svg>