<?xml version="1.0" encoding="UTF-8"?><svg id="_レイヤー_2" xmlns="http://www.w3.org/2000/svg" viewBox="0 0 863.5 113.29"><defs><style>.cls-1{fill:none;stroke:#333132;stroke-miterlimit:10;stroke-width:4px;}.cls-2{fill:#333132;}</style></defs><g id="_レイヤー_1-2"><path class="cls-2" d="m59.88,110.42c-.66,0-1.2-.54-1.2-1.2v-3.3c0-.5-.4-.9-.9-.9H7.26c-.5,0-.9.4-.9.9v3.3c0,.66-.54,1.2-1.2,1.2H1.2c-.66,0-1.2-.54-1.2-1.2V8.66c0-.66.54-1.2,1.2-1.2h62.64c.66,0,1.2.54,1.2,1.2v100.56c0,.66-.54,1.2-1.2,1.2h-3.96ZM7.26,13.7c-.5,0-.9.4-.9.9v83.28c0,.5.4.9.9.9h50.52c.5,0,.9-.4.9-.9V14.6c0-.5-.4-.9-.9-.9H7.26Zm5.34,73.32c-.66,0-1.2-.54-1.2-1.2v-3.72c0-.66.54-1.2,1.2-1.2h15.9c.5,0,.9-.4.9-.9v-22.44c0-.5-.4-.9-.9-.9h-10.62c-.66,0-1.2-.54-1.2-1.2v-3.72c0-.66.54-1.2,1.2-1.2h10.62c.5,0,.9-.4.9-.9v-18.24c0-.5-.4-.9-.9-.9h-12.9c-.66,0-1.2-.54-1.2-1.2v-3.72c0-.66.54-1.2,1.2-1.2h33.72c.66,0,1.2.54,1.2,1.2v3.72c0,.66-.54,1.2-1.2,1.2h-12.9c-.5,0-.9.4-.9.9v18.24c0,.5.4.9.9.9h10.62c.66,0,1.2.54,1.2,1.2v3.72c0,.66-.54,1.2-1.2,1.2h-10.62c-.5,0-.9.4-.9.9v22.44c0,.5.4.9.9.9h15.9c.66,0,1.2.54,1.2,1.2v3.72c0,.66-.54,1.2-1.2,1.2H12.6Zm35.75-12.15c-.46,0-.9-.27-1.1-.71-1.16-2.61-2.55-5.09-4.14-7.37-.36-.52-.26-1.23.24-1.62l2.6-2.07c.21-.17.48-.26.75-.26.06,0,.11,0,.17.01.33.05.62.22.81.49,1.92,2.7,3.54,5.5,4.93,8.55.14.3.14.64.02.94-.12.3-.36.55-.66.67l-3.17,1.29c-.15.06-.3.09-.45.09Z"/><path class="cls-2" d="m133.82,111.02c-.66,0-1.2-.54-1.2-1.2v-3.72c0-.66.54-1.2,1.2-1.2h1.14c.5,0,.9-.4.9-.9v-31.2c0-.5-.4-.9-.9-.9h-15.66c-.66,0-1.2-.54-1.2-1.2v-3.72c0-.66.54-1.2,1.2-1.2h39.36c.66,0,1.2.54,1.2,1.2v3.72c0,.66-.54,1.2-1.2,1.2h-15.78c-.5,0-.9.4-.9.9v37.02c0,.66-.54,1.2-1.2,1.2h-6.96Zm-40.08-.24c-.66,0-1.2-.54-1.2-1.2V18.56c0-.49-.38-.89-.87-.9-.65-.02-1.17-.55-1.17-1.2v-3.72c0-.66.54-1.2,1.2-1.2h17.82c.35,0,.68.15.91.41l2.69,3.09c.23.27.34.63.28.98l-3.56,21.59c-.02.14-.01.29.03.42,2.12,6.61,3.2,12.68,3.32,18.58,0,.21.08.41.22.57.39.45.39,1.13,0,1.58-.14.16-.22.36-.22.57-.23,10.79-3.15,16.04-8.94,16.04-1.12,0-2.27-.27-3.49-.83-.33-.15-.58-.45-.67-.81s0-.73.22-1.02l2.41-3.08c.23-.29.58-.46.94-.46.11,0,.22.02.33.05.08.02.16.04.25.04.17,0,.34-.05.48-.14,1.68-1.07,2.46-4.59,2.46-11.08s-1.17-12.88-3.58-19.36c-.07-.2-.09-.41-.06-.61l3.15-19.37c.04-.26-.03-.53-.2-.73-.17-.2-.42-.32-.69-.32h-6.24c-.5,0-.9.4-.9.9v53.64c0,.22.08.43.22.59.39.45.39,1.13,0,1.58-.14.16-.22.37-.22.59v34.62c0,.66-.54,1.2-1.2,1.2h-3.72Zm62.3-5.3c-.55,0-1.05-.39-1.17-.95-1.45-6.81-3.62-13.62-6.63-20.83-.25-.6.02-1.3.62-1.56l3.46-1.53c.15-.07.32-.1.49-.1.15,0,.3.03.45.09.3.12.54.36.66.66,3.03,7.44,5.34,14.86,6.86,22.05.07.31,0,.64-.17.91s-.45.45-.76.52l-3.56.72c-.08.02-.16.02-.24.02Zm-34.49-.33c-.17,0-.35-.04-.51-.11l-3.39-1.58c-.59-.28-.85-.97-.59-1.57,2.71-6.18,4.85-13.05,6.37-20.41.12-.57.62-.96,1.17-.96.07,0,.15,0,.22.02l3.56.67c.32.06.6.24.77.51.18.27.25.59.18.91-1.63,8.05-3.82,15.18-6.69,21.8-.13.3-.37.53-.67.64-.14.05-.28.08-.43.08Zm-3.19-43.95c-.26,0-.52-.09-.73-.25l-2.67-2.06c-.26-.2-.43-.5-.46-.83-.03-.33.07-.65.28-.9,4-5.21,7.31-10.72,9.85-16.4.11-.25.1-.53-.02-.77-.98-1.96-2.31-3.92-3.96-5.83-.17-.2-.42-.31-.68-.31-.32.01-.57.15-.73.37l-.28.39c-.19.27-.48.44-.81.49-.06,0-.11.01-.17.01-.27,0-.53-.09-.74-.26l-2.3-1.81c-.51-.4-.61-1.13-.23-1.65,5.16-7.12,8.8-15.75,10.8-25.66.11-.57.61-.96,1.17-.96.07,0,.13,0,.2.02l2.93.5c.32.05.61.24.79.51.18.27.25.6.18.92-.28,1.36-.62,2.81-1.02,4.29-.07.27-.01.56.16.78.17.22.44.35.71.35h3.37c.34,0,.67.15.9.4l2.47,2.78c.23.26.34.6.29.95-1.25,9.88-4.09,19.36-8.44,28.16-.14.28-.12.61.04.87.16.26.46.43.76.43h17.88c.31,0,.59-.15.76-.41.17-.26.19-.58.06-.86-4.75-10.28-7.54-21.46-8.53-34.17-.03-.32.08-.64.29-.88.21-.24.51-.39.83-.41,0,0,3.41-.22,3.44-.22.62,0,1.15.48,1.2,1.11.57,7.5,1.87,14.66,3.86,21.28.11.38.47.64.86.64.4,0,.75-.26.86-.65,1.37-4.67,2.39-9.65,3.03-14.78.03-.26-.05-.51-.22-.71-.17-.19-.42-.3-.67-.3h-3.06c-.66,0-1.2-.54-1.2-1.2v-3c0-.66.54-1.2,1.2-1.2h6.01c.33,0,.64.13.86.37l2.35,2.42c.23.24.35.57.34.9-.56,9.79-2.74,18.94-6.47,27.2-.11.24-.11.51,0,.74,2.5,5.55,5.53,10.64,9.27,15.58.4.52.3,1.27-.22,1.67l-2.67,2.08c-.21.17-.47.25-.74.25-.05,0-.11,0-.16-.01-.32-.04-.61-.21-.8-.47-2.06-2.78-3.85-5.52-5.48-8.39-.16-.28-.46-.46-.78-.46h-26.4c-.31,0-.6.16-.76.42-1.45,2.33-3.39,5.39-5.63,8.43-.19.26-.48.43-.8.48-.06,0-.11.01-.17.01Zm6.16-35.02c-.05,0-.1,0-.15.01-.27.05-.5.21-.63.45l-1.32,2.4c-.19.34-.14.76.12,1.04,1.43,1.56,2.52,2.76,3.42,4,.17.23.44.37.73.37.04,0,.08,0,.12,0,.33-.05.61-.27.72-.59l1.08-3c.1-.28.06-.59-.12-.83-1.09-1.51-2.32-2.68-3.37-3.62-.17-.15-.38-.23-.6-.23Zm3.6-8.28c-.37,0-.71.23-.84.58l-.96,2.52c-.12.33-.04.71.21.96.87.87,1.74,1.61,2.57,2.33.16.14.37.22.59.22.1,0,.19-.02.28-.04.3-.1.53-.35.6-.65.2-.87.37-1.74.53-2.63.14-.74.27-1.45.43-2.18.06-.27,0-.54-.18-.75-.17-.21-.43-.33-.7-.33h-2.52Z"/><path class="cls-2" d="m248.04,111.77c-.5,0-.97-.32-1.14-.82-.95-2.81-2.04-5.57-3.08-8.24-.14-.36-.48-.59-.84-.59-.07,0-.14,0-.2.02-11.57,2.64-23.58,4.93-36.72,6.98-.06,0-.12.01-.19.01-.25,0-.5-.08-.71-.23-.26-.19-.43-.48-.47-.79l-.59-4.1c-.05-.32.04-.64.23-.89.19-.26.48-.42.79-.47l2.12-.3c.29-.04.55-.22.68-.49,5.42-10.85,9.57-24.05,12.32-39.24.05-.26-.02-.53-.2-.74-.17-.21-.42-.32-.69-.32h-17.1c-.66,0-1.2-.54-1.2-1.2v-4.08c0-.66.54-1.2,1.2-1.2h19.98c.5,0,.9-.4.9-.9v-22.68c0-.5-.4-.9-.9-.9h-13.86c-.66,0-1.2-.54-1.2-1.2v-4.08c0-.66.54-1.2,1.2-1.2h13.86c.5,0,.9-.4.9-.9V6.98c0-.66.54-1.2,1.2-1.2h4.08c.66,0,1.2.54,1.2,1.2v16.26c0,.5.4.9.9.9h13.5c.66,0,1.2.54,1.2,1.2v4.08c0,.66-.54,1.2-1.2,1.2h-13.5c-.5,0-.9.4-.9.9v22.68c0,.5.4.9.9.9h21.66c.66,0,1.2.54,1.2,1.2v4.08c0,.66-.54,1.2-1.2,1.2h-24.42c-.44,0-.81.31-.89.74-2.03,11.6-5.65,24.1-10.75,37.15-.12.3-.06.65.14.9.17.21.43.33.7.33.05,0,.1,0,.16-.01,7.4-1.31,14.83-2.8,22.72-4.57.27-.06.5-.24.62-.49s.12-.54,0-.78c-3-6.12-6.15-11.82-9.62-17.4-.35-.56-.18-1.29.37-1.65l3.41-2.18c.19-.12.42-.19.65-.19.09,0,.18.01.27.03.31.07.58.27.75.54,7.22,11.67,12.89,23.41,16.83,34.88.1.3.08.63-.06.92-.14.29-.39.51-.7.61l-3.92,1.31c-.13.04-.25.06-.38.06Zm-61.13-4.1c-.22,0-.43-.06-.62-.18l-3.49-2.13c-.55-.33-.73-1.04-.43-1.6,4.27-7.86,7.73-19.36,10.28-34.17.1-.58.61-1,1.18-1,.06,0,.13,0,.19.02l4.01.65c.32.05.6.23.79.49.19.26.26.59.21.9-2.73,15.68-6.45,27.92-11.05,36.39-.16.29-.43.5-.74.59-.1.03-.21.04-.31.04Zm3.07-54.52c-.46,0-.89-.27-1.09-.7-1.19-2.61-3.15-5.43-6.01-8.63-.43-.49-.4-1.23.08-1.67l2.72-2.55c.22-.21.52-.32.82-.32.02,0,.03,0,.05,0,.32.01.62.15.84.39,3.38,3.69,5.84,7.29,7.29,10.68.13.31.13.66-.01.97-.14.31-.41.54-.73.64l-3.58,1.14c-.12.04-.24.06-.36.06Zm6.33-24.53c-.48,0-.92-.28-1.11-.74-1.09-2.64-2.95-5.53-5.67-8.85-.41-.5-.35-1.23.13-1.65l2.77-2.49c.22-.2.51-.31.8-.31.03,0,.06,0,.09,0,.32.02.63.18.83.43,3.22,3.85,5.54,7.55,6.91,11,.13.32.11.68-.04.98-.15.31-.43.53-.76.62l-3.63.96c-.1.03-.21.04-.31.04Z"/><path class="cls-2" d="m335.25,111.26c-2.79,0-4.96-.26-6.83-.8-4.38-1.35-7.27-4.72-8.87-10.3-1-2.99-1.62-7.68-2.01-15.16-.1-3.19-.22-8.54-.24-16.09,0-.32.12-.62.35-.85.22-.23.53-.35.85-.35h3.36c.66,0,1.2.54,1.2,1.2.01,10.11.14,15.94.24,17.87.88,11.22,3.1,17.15,6.79,18.1,1.52.41,3.29.63,5.15.63,1.09,0,2.33,0,3.46-.13.28-.03.53-.19.67-.44.14-.24.17-.54.06-.81-1.78-4.26-3.13-8.04-4-11.24-.08-.31-.04-.65.12-.92s.43-.48.75-.56l3.28-.81c.1-.02.19-.04.29-.04.52,0,1,.35,1.15.87,1.15,4.05,2.88,8.67,5.13,13.73.14.32.14.68,0,.99l-1.58,3.39c-.15.33-.45.57-.81.66-2.86.69-5.72,1.04-8.52,1.04Zm-46.26-.48c-.66,0-1.2-.54-1.2-1.2v-44.46c0-.26-.11-.51-.3-.68-.16-.14-.38-.22-.59-.22-.04,0-.08,0-.12,0l-8.01,1.03c-.05,0-.1,0-.15,0-.41,0-.8-.21-1.02-.57l-2.15-3.52c-.25-.41-.23-.94.05-1.33,3-4.15,6.26-9.31,10.26-16.23.12-.21.15-.47.08-.7-.07-.24-.23-.44-.45-.55l-7.21-3.77c-.3-.16-.52-.43-.61-.76l-.97-3.7c-.09-.33-.03-.69.17-.97,5.35-7.97,10.14-16.85,14.22-26.38.19-.45.64-.73,1.1-.73.15,0,.31.03.46.09l3.06,1.27c.3.12.53.36.65.66.12.3.12.64-.01.93-3.66,8.31-8.03,16.61-13.01,24.68-.13.21-.17.47-.1.71.07.24.23.44.46.56l4.68,2.4c.13.07.27.1.41.1.34,0,.65-.19.8-.49,1.67-3.24,3.31-6.56,5.01-10.15.21-.43.64-.69,1.08-.69.17,0,.34.03.5.11l3.05,1.39c.29.13.52.37.63.67.11.3.1.63-.03.92-4.3,9.36-9.56,18.81-15.63,28.08-.19.29-.2.67-.01.97.16.26.46.43.76.43.04,0,.07,0,.1,0l12-1.44c.25-.03.48-.16.62-.37.15-.2.2-.46.15-.71-.49-2.45-1.05-4.9-1.65-7.28-.16-.64.22-1.28.85-1.45l3.15-.84c.1-.03.21-.04.31-.04.21,0,.42.06.6.16.28.16.48.42.56.73,1.84,7.05,3.04,13.07,3.65,18.39.04.32-.06.64-.26.89-.2.25-.5.41-.82.44l-3.3.32s-.08,0-.12,0c-.6,0-1.11-.45-1.19-1.05l-.35-2.77c-.03-.23-.15-.45-.34-.6-.16-.12-.35-.19-.55-.19-.04,0-.08,0-.11,0l-3.84.48c-.45.06-.79.44-.79.89v45.3c0,.66-.54,1.2-1.2,1.2h-3.36Zm17.1-1.3c-.22,0-.44-.06-.63-.18l-2.81-1.75c-.53-.33-.72-1.02-.43-1.57,3.62-6.93,5.45-17.68,5.6-32.88,0-.66.54-1.19,1.2-1.19h3.24c.32,0,.63.13.85.35.23.23.35.53.35.85-.05,7.73-.41,13.96-1.06,18.52-.93,6.71-2.7,12.5-5.26,17.22-.16.29-.43.5-.75.59-.1.03-.2.04-.31.04Zm-26.41-5.4c-.07,0-.14,0-.21-.02l-3.2-.58c-.65-.12-1.08-.73-.97-1.38,1.26-7.65,2.09-16.14,2.46-25.24.01-.32.15-.62.39-.84.22-.2.51-.31.81-.31.02,0,3.42.16,3.42.16.66.03,1.17.59,1.14,1.25-.38,9.21-1.27,17.95-2.66,25.96-.05.31-.23.6-.5.78-.2.14-.44.22-.69.22Zm20.45-12.77c-.65,0-1.18-.52-1.2-1.17-.09-3.84-.41-8.24-.94-13.08-.07-.66.4-1.25,1.05-1.32l2.9-.34s.09,0,.14,0c.27,0,.53.09.75.26.25.2.41.49.45.81.5,4.68.84,9.25,1.01,13.56.01.32-.11.64-.33.87-.22.23-.53.37-.85.38,0,0-2.97.05-2.98.05Zm45.24-3.09c-.48,0-.94-.29-1.12-.77-1.99-5.18-4.22-9.77-6.64-13.64-.34-.55-.19-1.28.36-1.64l2.5-1.65c.2-.13.43-.2.66-.2.08,0,.17,0,.25.03.32.07.59.26.76.54,2.51,4,4.84,8.8,7.11,14.66.12.3.11.63-.02.92-.13.29-.37.52-.67.63l-2.78,1.04c-.14.05-.28.08-.42.08Zm-13.92-2.56c-.57,0-1.07-.4-1.18-.98-.81-4.22-1.95-8.33-3.51-12.55-.23-.61.08-1.29.69-1.53l2.79-1.1c.14-.06.29-.08.44-.08.17,0,.34.04.49.11.29.13.52.38.63.69,1.72,4.75,2.99,9.32,3.77,13.58.06.32-.01.65-.2.91s-.48.44-.8.49l-2.95.45c-.06,0-.12.01-.18.01Zm7.15-21.81c-.45,0-.89-.26-1.09-.7-.5-1.08-1.02-2.23-1.55-3.43-.14-.33-.47-.54-.82-.54-.05,0-.11,0-.16.01-7.82,1.43-16.17,2.57-24.84,3.4-.04,0-.08,0-.11,0-.61,0-1.13-.46-1.19-1.08l-.32-3.28c-.06-.66.42-1.24,1.08-1.31l.32-.03c.3-.03.56-.21.7-.47,4.17-7.77,7.97-16.73,11.29-26.62.17-.5.64-.82,1.14-.82.12,0,.24.02.36.06l3.19,1.01c.31.1.56.31.71.6.15.29.17.62.07.93-2.74,8.06-5.88,15.78-9.36,22.94-.14.3-.11.65.08.92.17.23.44.37.73.37.04,0,.08,0,.12,0,4.57-.6,8.81-1.21,12.62-1.8.29-.05.54-.23.67-.5s.12-.58-.02-.83c-1.11-1.98-2.33-4-3.83-6.36-.35-.55-.2-1.28.34-1.64l2.77-1.87c.2-.13.43-.21.67-.21.08,0,.16,0,.24.02.32.06.59.25.77.52,3.61,5.56,6.76,11.35,9.64,17.72.13.3.14.63.02.94-.12.3-.36.54-.66.67l-3.11,1.29c-.15.06-.31.09-.46.09Zm-30.46-24.59c-.25,0-.5-.08-.71-.23l-2.72-1.97c-.53-.38-.65-1.12-.28-1.66,5.63-8.04,9.75-16.8,12.23-26.04.14-.53.63-.89,1.16-.89.09,0,.18,0,.27.03l3.23.74c.32.07.59.27.76.55.17.28.21.61.13.93-2.69,10.03-7.09,19.47-13.08,28.03-.18.26-.47.44-.79.5-.07.01-.13.02-.2.02Zm33.93-.46c-.08,0-.16,0-.24-.02-.31-.06-.59-.25-.77-.52-6.74-10.21-11.79-20.65-15.02-31.01-.1-.31-.06-.64.09-.92.15-.28.41-.49.72-.58l3.29-.97c.11-.03.23-.05.34-.05.51,0,.99.33,1.15.85,3.03,9.79,7.81,19.72,14.21,29.51.36.55.21,1.29-.33,1.65l-2.76,1.86c-.2.13-.43.2-.67.2Z"/><path class="cls-2" d="m426.7,111.41c-.3,0-.61-.11-.84-.34-4.14-4.04-10.44-8.09-18.73-12.05-.59-.28-.85-.99-.57-1.59l1.63-3.5c.13-.28.11-.6-.06-.86-.17-.26-.45-.42-.76-.42h-14.76c-.3,0-.58.15-.75.4-.18.26-.45.44-.75.5.3.06.58.24.75.5.05.07.1.13.16.18l2.45,2.09c.25.21.4.52.42.85.02.33-.1.65-.32.89-5.48,5.87-12.26,10.17-20.72,13.16-.13.05-.26.07-.4.07-.18,0-.37-.04-.54-.13-.29-.15-.51-.4-.61-.71l-1.13-3.55c-.2-.62.13-1.28.74-1.49,7-2.48,13-6.25,17.86-11.22.04-.04.07-.08.1-.12.18-.26.45-.44.75-.51-.3-.06-.58-.24-.75-.5-.17-.25-.45-.4-.75-.4h-5.76c-.5,0-.9.4-.9.9v.18c0,.66-.54,1.2-1.2,1.2h-3.72c-.66,0-1.2-.54-1.2-1.2v-43.56c0-.66.54-1.2,1.2-1.2h47.64c.66,0,1.2.54,1.2,1.2v43.56c0,.66-.54,1.2-1.2,1.2h-3.72c-.66,0-1.2-.54-1.2-1.2v-.18c0-.5-.4-.9-.9-.9h-7.44c-.42,0-.78.28-.88.69-.1.41.1.82.47,1.01,8.27,4.19,14.58,8.43,18.76,12.6.23.23.36.56.35.89-.01.33-.16.64-.41.86l-2.74,2.41c-.23.2-.51.3-.79.3Zm-43.32-31.48c-.5,0-.9.4-.9.9v4.8c0,.5.4.9.9.9h36c.5,0,.9-.4.9-.9v-4.8c0-.5-.4-.9-.9-.9h-36Zm0-12.6c-.5,0-.9.4-.9.9v5.04c0,.5.4.9.9.9h36c.5,0,.9-.4.9-.9v-5.04c0-.5-.4-.9-.9-.9h-36Zm0-12.24c-.5,0-.9.4-.9.9v4.8c0,.5.4.9.9.9h36c.5,0,.9-.4.9-.9v-4.8c0-.5-.4-.9-.9-.9h-36Zm-12.78-10.2c-.66,0-1.2-.54-1.2-1.2V7.1c0-.66.54-1.2,1.2-1.2h29.16c.66,0,1.2.54,1.2,1.2v2.88c0,.66-.54,1.2-1.2,1.2h-8.7c-.5,0-.9.4-.9.9v4.2c0,.5.4.9.9.9h6.3c.66,0,1.2.54,1.2,1.2v13.56c0,.66-.54,1.2-1.2,1.2h-6.3c-.5,0-.9.4-.9.9v4.68c0,.5.4.9.9.9h9.9c.66,0,1.2.54,1.2,1.2v2.88c0,.66-.54,1.2-1.2,1.2h-30.36Zm5.1-11.76c-.5,0-.9.4-.9.9v4.68c0,.5.4.9.9.9h8.16c.5,0,.9-.4.9-.9v-4.68c0-.5-.4-.9-.9-.9h-8.16Zm0-10.56c-.5,0-.9.4-.9.9v3.48c0,.5.4.9.9.9h16.56c.5,0,.9-.4.9-.9v-3.48c0-.5-.4-.9-.9-.9h-16.56Zm0-11.4c-.5,0-.9.4-.9.9v4.2c0,.5.4.9.9.9h8.16c.5,0,.9-.4.9-.9v-4.2c0-.5-.4-.9-.9-.9h-8.16Zm36.18,28.8c-.66,0-1.2-.54-1.2-1.2v-3.36c0-.66.54-1.2,1.2-1.2h21.48c.66,0,1.2.54,1.2,1.2v3.36c0,.66-.54,1.2-1.2,1.2h-21.48Zm-4.8-9.95c-.18,0-.35-.04-.51-.12l-3.03-1.44c-.59-.28-.85-.97-.58-1.57,2.56-5.82,4.41-12.91,5.65-21.69.08-.6.6-1.03,1.19-1.03.04,0,.09,0,.13,0l3.4.38c.32.04.62.2.82.46.2.26.29.58.24.9-.36,2.51-.85,5.01-1.28,7.16-.05.27.01.54.19.75.17.21.43.33.7.33h20.94c.66,0,1.2.54,1.2,1.2v3.36c0,.66-.54,1.2-1.2,1.2h-22.74c-.4,0-.75.26-.86.64-1.01,3.32-2.03,6.18-3.14,8.73-.13.3-.37.53-.68.65-.14.05-.28.08-.42.08Z"/><path class="cls-2" d="m507.21,5.76v43.84h-4.93V5.76h4.93Z"/><path class="cls-2" d="m521.67,22.14l.19.13c3.2-2.5,7.17-4.35,12.1-4.35,6.53,0,7.62,5.12,7.62,10.5v21.18h-4.42v-20.54c0-4.35-1.09-7.1-5.63-7.1-3.52,0-6.85,1.6-9.66,3.9v23.74h-4.42v-22.33c0-3.52-.7-4.99-1.98-6.78l3.9-2.56c1.02.9,2.05,2.75,2.3,4.22Z"/><path class="cls-2" d="m567.51,18.88l-1.28,3.52h-10.3v15.81c0,6.98,2.56,8.45,5.76,8.45,1.66,0,3.97-.64,4.93-1.02l.9,3.58c-1.79.7-5.05,1.34-7.68,1.34-6.27,0-8.32-3.84-8.32-12.86v-15.29h-4.29l1.41-3.52h2.88v-8.9l3.52-1.09.9.7v9.28h11.58Z"/><path class="cls-2" d="m574.43,34.49c0,7.42,3.52,12.22,10.43,12.22,3.26,0,6.91-1.28,8.77-2.37l1.47,3.52c-2.24,1.41-6.14,2.69-10.43,2.69-9.22,0-14.72-5.06-14.72-15.23s5.7-17.41,13.63-17.41c8.77,0,11.39,7.17,11.39,15.04l-.71.64h-19.84v.9Zm15.74-4.74c0-4.8-2.88-8-6.78-8-4.48,0-7.68,2.88-8.58,8h15.36Z"/><path class="cls-2" d="m606.27,22.78l.19.13c2.18-2.88,5.12-4.99,10.56-4.99l.77,4.99-.38.38c-.64-.19-2.05-.38-3.52-.38-3.52,0-5.76,1.22-7.42,3.58v23.1h-4.42v-22.33c0-3.52-.7-4.99-1.98-6.78l3.9-2.56c1.02.9,2.05,3.01,2.3,4.86Z"/><path class="cls-2" d="m628.45,22.14l.19.13c3.2-2.5,7.17-4.35,12.09-4.35,6.53,0,7.62,5.12,7.62,10.5v21.18h-4.42v-20.54c0-4.35-1.09-7.1-5.63-7.1-3.52,0-6.85,1.6-9.66,3.9v23.74h-4.42v-22.33c0-3.52-.71-4.99-1.98-6.78l3.9-2.56c1.02.9,2.05,2.75,2.3,4.22Z"/><path class="cls-2" d="m675.16,50.56c-1.22-.83-2.56-2.88-2.94-4.29l-.19-.06c-2.88,2.5-7.1,4.35-10.69,4.35-4.16,0-6.66-3.14-6.66-7.3,0-9.34,8.83-11.97,17.34-11.97,0-5.76-.45-9.41-5.31-9.41-3.52,0-6.4,1.41-8.58,2.82l-1.6-3.01c3.14-2.11,7.3-3.78,12.29-3.78,7.17,0,7.49,5.63,7.49,12.42v11.14c0,3.39,1.15,5.12,2.43,6.27l-3.58,2.82Zm-3.14-15.49c-.96-.06-2.11-.13-3.84-.13-4.48,0-9.15,2.18-9.15,6.98,0,2.88,1.92,4.61,4.54,4.61s5.38-1.15,8.45-3.84v-7.62Z"/><path class="cls-2" d="m701.87,18.88l-1.28,3.52h-10.3v15.81c0,6.98,2.56,8.45,5.76,8.45,1.66,0,3.97-.64,4.93-1.02l.9,3.58c-1.79.7-5.06,1.34-7.68,1.34-6.27,0-8.32-3.84-8.32-12.86v-15.29h-4.29l1.41-3.52h2.88v-8.9l3.52-1.09.9.7v9.28h11.58Z"/><path class="cls-2" d="m711.93,4.8l-.83,5.63-2.43.83-3.65-4.16v-1.28l6.14-1.92.77.9Zm-4.86,44.8v-30.33l4.42-1.34v31.68h-4.42Z"/><path class="cls-2" d="m732.23,50.56c-8.83,0-13.63-6.98-13.63-16.51s5.63-16.13,14.72-16.13c7.17,0,12.8,6.14,12.8,15.94,0,10.69-5.25,16.7-13.89,16.7Zm-.19-28.86c-5.5,0-8.96,5.06-8.96,11.01,0,8.7,4.22,14.08,9.73,14.08s8.83-3.78,8.83-11.2c0-8.7-3.46-13.89-9.6-13.89Z"/><path class="cls-2" d="m757.61,22.14l.19.13c3.2-2.5,7.17-4.35,12.09-4.35,6.53,0,7.62,5.12,7.62,10.5v21.18h-4.42v-20.54c0-4.35-1.09-7.1-5.63-7.1-3.52,0-6.85,1.6-9.66,3.9v23.74h-4.42v-22.33c0-3.52-.7-4.99-1.98-6.78l3.9-2.56c1.02.9,2.05,2.75,2.3,4.22Z"/><path class="cls-2" d="m804.32,50.56c-1.22-.83-2.56-2.88-2.94-4.29l-.19-.06c-2.88,2.5-7.1,4.35-10.69,4.35-4.16,0-6.66-3.14-6.66-7.3,0-9.34,8.83-11.97,17.34-11.97,0-5.76-.45-9.41-5.31-9.41-3.52,0-6.4,1.41-8.58,2.82l-1.6-3.01c3.14-2.11,7.3-3.78,12.29-3.78,7.17,0,7.49,5.63,7.49,12.42v11.14c0,3.39,1.15,5.12,2.43,6.27l-3.58,2.82Zm-3.14-15.49c-.96-.06-2.11-.13-3.84-.13-4.48,0-9.15,2.18-9.15,6.98,0,2.88,1.92,4.61,4.54,4.61s5.38-1.15,8.45-3.84v-7.62Z"/><path class="cls-2" d="m819.14,49.6h-4.42V1.34l4.42-1.34v49.6Z"/><path class="cls-2" d="m507.21,105.44h16.64l-1.02,4.16h-20.54v-43.84h4.93v39.68Z"/><path class="cls-2" d="m548.07,110.56c-1.22-.83-2.56-2.88-2.94-4.29l-.19-.06c-2.88,2.5-7.1,4.35-10.69,4.35-4.16,0-6.66-3.14-6.66-7.3,0-9.34,8.83-11.97,17.34-11.97,0-5.76-.45-9.41-5.31-9.41-3.52,0-6.4,1.41-8.58,2.82l-1.6-3.01c3.13-2.11,7.29-3.78,12.29-3.78,7.17,0,7.49,5.63,7.49,12.42v11.14c0,3.39,1.15,5.12,2.43,6.27l-3.58,2.82Zm-3.14-15.49c-.96-.06-2.11-.13-3.84-.13-4.48,0-9.15,2.18-9.15,6.98,0,2.88,1.92,4.61,4.54,4.61s5.38-1.15,8.45-3.84v-7.62Z"/><path class="cls-2" d="m566.98,109.6h-4.35l-8.38-30.33,4.16-1.34,3.46,13.38c.77,2.94,2.3,9.28,3.14,13.18h.32l8.32-24.25,3.33-.96,4.03,11.97c.96,2.94,2.88,8.9,4.16,13.25h.32l7.17-26.56,4.16,1.28-9.6,30.4h-4.35l-4.22-12.29c-.96-2.88-2.37-7.1-3.33-10.43h-.32l-8,22.72Z"/><path class="cls-2" d="m645.83,70.11c-1.73-.7-3.71-1.15-6.46-1.15-6.02,0-16.32,4.22-16.32,18.43s7.68,19.01,16.13,19.01c2.94,0,6.91-.58,8.45-1.09l.19.13-1.09,4.16c-1.6.51-4.93.96-8.83.96-11.65,0-20.09-7.36-20.09-21.63,0-17.98,13.31-24.13,21.89-24.13,2.75,0,5.12.26,7.42,1.02l-1.28,4.29Z"/><path class="cls-2" d="m664.71,110.56c-8.83,0-13.63-6.98-13.63-16.51s5.63-16.13,14.72-16.13c7.17,0,12.8,6.14,12.8,15.94,0,10.69-5.25,16.7-13.89,16.7Zm-.19-28.86c-5.5,0-8.96,5.06-8.96,11.01,0,8.7,4.22,14.08,9.73,14.08s8.83-3.78,8.83-11.2c0-8.7-3.46-13.89-9.6-13.89Z"/><path class="cls-2" d="m690.46,109.6h-4.42v-48.25l4.42-1.34v49.6Z"/><path class="cls-2" d="m704.27,109.6h-4.42v-48.25l4.42-1.34v49.6Z"/><path class="cls-2" d="m716.13,94.49c0,7.42,3.52,12.22,10.43,12.22,3.26,0,6.91-1.28,8.77-2.37l1.47,3.52c-2.24,1.41-6.14,2.69-10.43,2.69-9.22,0-14.72-5.06-14.72-15.23s5.7-17.41,13.63-17.41c8.77,0,11.39,7.17,11.39,15.04l-.7.64h-19.84v.9Zm15.74-4.74c0-4.8-2.88-8-6.78-8-4.48,0-7.68,2.88-8.58,8h15.36Z"/><path class="cls-2" d="m762.57,82.85c-1.09-.38-2.81-.96-5.57-.96-4.99,0-10.5,3.26-10.5,11.84,0,8.06,3.33,12.99,10.05,12.99,1.98,0,4.74-.51,6.85-1.66l1.22,3.71c-2.11,1.15-5.5,1.79-8.45,1.79-8.83,0-14.27-4.99-14.27-15.55,0-9.79,6.46-16.96,15.36-16.96,3.13,0,5.05.51,6.27.9l-.96,3.9Z"/><path class="cls-2" d="m787.86,78.88l-1.28,3.52h-10.3v15.81c0,6.98,2.56,8.45,5.76,8.45,1.66,0,3.97-.64,4.93-1.02l.9,3.58c-1.79.7-5.06,1.34-7.68,1.34-6.27,0-8.32-3.84-8.32-12.86v-15.29h-4.29l1.41-3.52h2.88v-8.9l3.52-1.09.9.7v9.28h11.58Z"/><path class="cls-2" d="m797.91,64.8l-.83,5.63-2.43.83-3.65-4.16v-1.28l6.14-1.92.77.9Zm-4.86,44.8v-30.33l4.42-1.34v31.68h-4.42Z"/><path class="cls-2" d="m818.22,110.56c-8.83,0-13.63-6.98-13.63-16.51s5.63-16.13,14.72-16.13c7.17,0,12.8,6.14,12.8,15.94,0,10.69-5.25,16.7-13.89,16.7Zm-.19-28.86c-5.5,0-8.96,5.06-8.96,11.01,0,8.7,4.22,14.08,9.73,14.08s8.83-3.78,8.83-11.2c0-8.7-3.46-13.89-9.6-13.89Z"/><path class="cls-2" d="m843.59,82.14l.19.13c3.2-2.5,7.17-4.35,12.1-4.35,6.53,0,7.62,5.12,7.62,10.5v21.18h-4.42v-20.54c0-4.35-1.09-7.1-5.63-7.1-3.52,0-6.85,1.6-9.66,3.9v23.74h-4.42v-22.33c0-3.52-.7-4.99-1.98-6.78l3.9-2.56c1.02.9,2.05,2.75,2.3,4.22Z"/><line class="cls-1" x1="464.65" y1="3.03" x2="464.65" y2="113.29"/></g></svg>